<svg xmlns="http://www.w3.org/2000/svg" width="279" height="285" fill="none" viewBox="0 0 279 172">
    <path fill="#DCE6EF" d="M259.613 143.872c-2.124-5.396-3.674-11.138-5.397-17.223-1.148-4.076-3.042-8.669-7.061-9.932-3.961-1.263-8.152 1.32-10.621 4.707-2.411 3.33-3.617 7.406-5.684 10.966-3.732 6.487-10.391 9.186-15.903 3.502-7.865-8.152-11.367-19.233-16.362-29.165-3.617-7.176-6.66-15.616-11.195-22.275-6.947-10.105-16.477-18.774-29.108-18.774-8.037 1.206-15.099 8.325-19.864 17.224-4.765 8.898-7.578 19.462-9.932 29.968-4.306 19.175-7.521 38.753-10.678 58.33l159.66-1.837c-.632 0-4.535-5.225-5.282-5.971-6.143-5.913-9.817-12.401-12.573-19.52z"/>
    <path fill="#6AA5FE" d="M229.3 153.001c-.287 6.2-7.061 17.051-13.262 16.764-6.2-.287-9.53-11.655-9.186-17.855.287-6.201 6.947-37.26 13.148-36.973 6.143.287 9.587 31.863 9.3 38.064z"/>
    <path stroke="#1A55B5" stroke-linecap="round" stroke-linejoin="round" stroke-miterlimit="10" stroke-width=".868" d="M219.655 118.956l-3.158 50.292"/>
    <path fill="#FFC957" d="M215.062 151.738c-1.435 3.1-2.468 6.372-3.157 9.76-.345 1.722-.517 3.559.23 5.167.861 1.722 2.755 2.698 4.65 3.042 4.593.747 9.243-2.066 11.941-5.856 2.699-3.789 3.904-8.496 4.938-13.032.861-3.559 1.665-7.234 3.272-10.563.689-1.436 4.708-6.947 2.813-8.383-2.583-2.009-10.104.173-14.869 5.397-3.962 4.306-7.406 9.128-9.818 14.468z"/>
    <path stroke="#6AA5FE" stroke-linecap="round" stroke-linejoin="round" stroke-miterlimit="10" stroke-width=".868" d="M216.784 169.65s5.569-21.701 19.003-34.102"/>
    <path fill="#1A55B5" d="M247.671 146.628c-.459.861-1.378 1.435-2.182 1.894-.976.575-2.066 1.034-3.1 1.551-1.32.631-2.698 1.263-3.961 2.066-.919.574-1.722 1.206-2.411 1.952 1.09-2.468 2.353-4.593 3.846-6.545 1.952-2.526 3.962-3.789 5.971-3.789h.115c.631 0 1.091.173 1.435.46.746.516.746 1.665.287 2.411zM249.968 160.636c-.804.574-1.838.689-2.756.804-1.148.057-2.297.057-3.445.057-1.435 0-2.985 0-4.421.172-1.09.115-2.124.345-3.042.689 2.009-1.78 4.076-3.157 6.258-4.248 2.87-1.436 5.224-1.723 7.061-.861.057 0 .058.057.115.057.574.287.918.631 1.091 1.033.344.804-.173 1.78-.861 2.297z"/>
    <path fill="#1A55B5" d="M244.628 167.525c-.689-.114-1.263-.516-1.722-.918-.632-.517-1.206-1.034-1.723-1.608-.746-.689-1.492-1.378-2.296-2.009-.574-.459-1.206-.804-1.837-1.033 1.837.057 3.502.344 5.109.803 2.125.632 3.388 1.608 3.904 2.871 0 .057 0 .057.058.115.172.402.172.746.057 1.033-.229.574-.976.804-1.55.746z"/>
    <path stroke="#2A294F" stroke-linecap="round" stroke-linejoin="round" stroke-miterlimit="10" stroke-width=".78" d="M229.529 169.765s.058-13.262 16.248-24.515M229.529 169.764s4.995-10.678 18.487-10.678M236.878 162.071s2.583-.172 8.037 3.904"/>
    <path fill="#DCE6EF" d="M90.308 169.879c-3.732-14.18-7.521-28.303-11.942-42.025-2.469-7.75-5.224-15.443-9.013-21.644-3.79-6.2-8.842-10.735-13.894-10.735-7.808 1.492-12.803 9.185-16.132 17.74-2.182 5.569-3.215 12.343-4.765 18.256-2.125 8.153-3.215 16.994-7.292 24.113-2.813 4.995-7.176 3.732-10.104-.746-1.608-2.469-2.756-5.397-4.593-7.693-1.837-2.239-4.65-3.732-7.004-2.297-2.354 1.435-3.1 5.167-3.387 8.382-.402 4.938-.862 9.473-1.608 13.836-.172.976-.344 1.895-.574 2.813h90.308z"/>
    <path fill="#FFC957" d="M56.837 150.36c-2.354-2.699-5.282-5.052-6.258-8.44-.689-2.468-.172-5.109.115-7.693.287-2.583.172-5.396-1.493-7.406-1.378-1.607-3.502-2.354-5.626-2.756-2.067-.459-4.249-.746-6.086-1.779-2.985-1.723-2.411-4.651-4.018-7.177-1.78-2.87-6.029-6.545-9.588-4.65-3.79 2.009-3.215 8.152-.69 10.851 1.666 1.779 3.847 3.502 4.077 5.97.345 3.675-3.846 7.005-2.698 10.507.86 2.583 4.133 3.502 5.74 5.683 1.608 2.182 1.264 5.225.345 7.808-.918 2.526-2.411 4.88-2.985 7.521-1.206 5.397 3.043 9.129 7.865 10.334 4.42 1.091 14.009.574 14.009.574 3.444-1.205 7.233-4.191 9.07-7.463 1.436-2.469 1.608-5.626.517-8.267-.46-1.321-1.32-2.469-2.296-3.617z"/>
    <path stroke="#6AA5FE" stroke-linecap="round" stroke-linejoin="round" stroke-miterlimit="10" d="M28.189 116.315S44.55 141.576 46.33 169.65"/>
    <path fill="#6AA5FE" d="M13.607 150.417c.23-.229.631-.344 1.09-.344h.115c1.55 0 3.043.976 4.536 2.87 1.148 1.436 2.067 3.101 2.928 4.938-.517-.517-1.148-1.034-1.837-1.436-.976-.574-2.01-1.09-2.986-1.55-.804-.344-1.607-.746-2.354-1.148-.631-.344-1.263-.804-1.665-1.435-.344-.632-.344-1.493.173-1.895zM11.08 161.096c.115-.287.402-.574.861-.804.058 0 .058-.057.115-.057 1.378-.632 3.158-.402 5.34.688 1.664.804 3.214 1.895 4.764 3.215-.689-.229-1.492-.459-2.296-.516-1.09-.115-2.239-.115-3.387-.115-.861 0-1.723 0-2.641-.057-.69-.058-1.493-.173-2.124-.575-.517-.401-.919-1.148-.632-1.779z"/>
    <path fill="#6AA5FE" d="M14.583 167.526c-.058-.23-.058-.459.057-.804v-.057c.402-.976 1.378-1.723 2.985-2.182 1.206-.344 2.47-.574 3.847-.631-.46.172-.919.459-1.378.803-.631.46-1.206.976-1.722 1.493-.402.402-.861.804-1.32 1.206-.345.287-.804.631-1.321.689-.46.114-.976-.115-1.148-.517z"/>
    <path stroke="#2A294F" stroke-linecap="round" stroke-linejoin="round" stroke-miterlimit="10" stroke-width=".78" d="M27.155 169.765s-.057-10.047-12.286-18.544M27.155 169.765s-3.79-8.038-13.95-8.038M21.587 163.966s-1.952-.172-6.086 2.985"/>
    <path fill="#6AA5FE" d="M158.57 169.765H50.58c-2.986 0-5.397-2.411-5.397-5.397V17.855c0-2.985 2.41-5.396 5.396-5.396h108.048c2.985 0 5.397 2.41 5.397 5.396v146.456c0 3.043-2.412 5.454-5.454 5.454z"/>
    <path fill="#527EE9" d="M45.125 50.752V164.31c0 2.985 2.411 5.396 5.397 5.396h108.047c2.986 0 5.397-2.411 5.397-5.396V141.92L45.125 50.752z"/>
    <path fill="#F3F4F6" d="M154.895 162.531H54.254c-1.206 0-2.24-.976-2.24-2.239V21.931c0-1.206.977-2.24 2.24-2.24h100.641c1.206 0 2.239.977 2.239 2.24v138.361c0 1.263-1.033 2.239-2.239 2.239z"/>
    <path fill="#1A55B5" d="M113.616 9.473v-.46c0-4.994-4.019-9.013-9.013-9.013-4.995 0-9.014 4.019-9.014 9.014v.459H82.327V23.25h44.551V9.473h-13.262z"/>
    <path fill="#2C6BC6" d="M82.27 9.473V23.25h44.608L82.269 9.473z"/>
    <path fill="#527EE9" d="M106.535 13.663c2.575-1.074 3.792-4.032 2.719-6.607-1.074-2.576-4.032-3.793-6.607-2.72-2.576 1.074-3.793 4.033-2.72 6.608 1.074 2.575 4.032 3.793 6.608 2.719z"/>
    <path fill="#6AA5FE" d="M100.986 5.454c-2.01 2.01-2.01 5.167 0 7.176 2.009 2.01 5.167 2.01 7.176 0l-7.176-7.176z"/>
    <path fill="#CDE1F9" d="M126.878 23.252H82.269v.976h44.609v-.977z"/>
    <path stroke="#1A55B5" stroke-miterlimit="10" d="M81.122 42.312H64.186v16.936h16.936V42.312z"/>
    <path stroke="#F3F4F6" stroke-miterlimit="10" stroke-width="4" d="M69.123 51.67l5.167 4.019 10.506-10.105"/>
    <path stroke="#FF746F" stroke-miterlimit="10" stroke-width="4" d="M67.975 50.522l5.167 4.018 10.506-10.104"/>
    <path fill="#6AA5FE" d="M144.331 47.135H89.217c-.345 0-.632-.287-.632-.632 0-.344.287-.631.632-.631h55.114c.345 0 .632.287.632.631 0 .345-.287.632-.632.632zM144.331 50.005H89.217c-.345 0-.632-.287-.632-.631 0-.345.287-.632.632-.632h55.114c.345 0 .632.287.632.632 0 .344-.287.631-.632.631zM144.331 52.876H89.217c-.345 0-.632-.287-.632-.632 0-.344.287-.631.632-.631h55.114c.345 0 .632.287.632.631 0 .345-.287.632-.632.632zM144.331 55.746H89.217c-.345 0-.632-.287-.632-.631 0-.345.287-.632.632-.632h55.114c.345 0 .632.288.632.632 0 .344-.287.631-.632.631z"/>
    <path stroke="#1A55B5" stroke-miterlimit="10" d="M81.122 69.525H64.186V86.46h16.936V69.525z"/>
    <path stroke="#F3F4F6" stroke-miterlimit="10" stroke-width="4" d="M69.123 78.883l5.167 4.019 10.506-10.105"/>
    <path stroke="#FF746F" stroke-miterlimit="10" stroke-width="4" d="M67.975 77.734l5.167 4.02 10.506-10.105"/>
    <path fill="#6AA5FE" d="M144.331 74.347H89.217c-.345 0-.632-.286-.632-.631 0-.344.287-.631.632-.631h55.114c.345 0 .632.287.632.631 0 .345-.287.632-.632.632zM144.331 77.218H89.217c-.345 0-.632-.287-.632-.631 0-.345.287-.632.632-.632h55.114c.345 0 .632.287.632.632 0 .344-.287.631-.632.631zM144.331 80.089H89.217c-.345 0-.632-.287-.632-.632 0-.344.287-.631.632-.631h55.114c.345 0 .632.287.632.631 0 .345-.287.632-.632.632zM144.331 82.96H89.217c-.345 0-.632-.288-.632-.632 0-.345.287-.632.632-.632h55.114c.345 0 .632.287.632.632 0 .344-.287.631-.632.631z"/>
    <path stroke="#1A55B5" stroke-miterlimit="10" d="M81.122 96.795H64.186v16.936h16.936V96.795z"/>
    <path stroke="#F3F4F6" stroke-miterlimit="10" stroke-width="4" d="M69.123 106.096l5.167 4.076 10.506-10.162"/>
    <path stroke="#FF746F" stroke-miterlimit="10" stroke-width="4" d="M67.975 104.947l5.167 4.077 10.506-10.162"/>
    <path fill="#6AA5FE" d="M144.331 101.56H89.217c-.345 0-.632-.287-.632-.632 0-.344.287-.631.632-.631h55.114c.345 0 .632.287.632.631 0 .345-.287.632-.632.632zM144.331 104.431H89.217c-.345 0-.632-.288-.632-.632 0-.344.287-.632.632-.632h55.114c.345 0 .632.288.632.632 0 .344-.287.632-.632.632zM144.331 107.301H89.217c-.345 0-.632-.287-.632-.631 0-.345.287-.632.632-.632h55.114c.345 0 .632.287.632.632 0 .344-.287.631-.632.631zM144.331 110.172H89.217c-.345 0-.632-.287-.632-.632 0-.344.287-.631.632-.631h55.114c.345 0 .632.287.632.631 0 .345-.287.632-.632.632z"/>
    <path stroke="#1A55B5" stroke-miterlimit="10" d="M81.122 124.008H64.186v16.936h16.936v-16.936z"/>
    <path stroke="#F3F4F6" stroke-miterlimit="10" stroke-width="4" d="M69.123 133.309l5.167 4.076 10.506-10.162"/>
    <path stroke="#FF746F" stroke-miterlimit="10" stroke-width="4" d="M67.975 132.16l5.167 4.076 10.506-10.161"/>
    <path fill="#6AA5FE" d="M144.331 128.773H89.217c-.345 0-.632-.287-.632-.632 0-.344.287-.631.632-.631h55.114c.345 0 .632.287.632.631 0 .345-.287.632-.632.632zM144.331 131.643H89.217c-.345 0-.632-.287-.632-.631 0-.345.287-.632.632-.632h55.114c.345 0 .632.287.632.632 0 .344-.287.631-.632.631zM144.331 134.514H89.217c-.345 0-.632-.287-.632-.632 0-.344.287-.631.632-.631h55.114c.345 0 .632.287.632.631 0 .345-.287.632-.632.632zM144.331 137.385H89.217c-.345 0-.632-.287-.632-.632 0-.344.287-.631.632-.631h55.114c.345 0 .632.287.632.631 0 .345-.287.632-.632.632z"/>
    <path stroke="#2A294F" stroke-linecap="round" stroke-linejoin="round" stroke-miterlimit="10" stroke-width=".78" d="M.517 169.765h277.927"/>
    <path fill="#FF746F" d="M178.32 164.655h-2.641v3.215h2.641v-3.215z"/>
    <path fill="#2A294F" d="M175.679 167.124l1.377.459 1.264-.459 1.148 2.641h-10.621l4.018-1.321 2.814-1.32z"/>
    <path fill="#FF746F" d="M203.121 167.87h2.64l-.976-3.215h-2.64l.976 3.215z"/>
    <path fill="#2A294F" d="M205.532 167.124l-1.378.459-1.263-.459-1.148 2.641h10.564l-3.962-1.321-2.813-1.32z"/>
    <path fill="#FE9280" d="M169.765 55.517c-.344.287-3.559 2.181-3.559 2.181l-2.297-2.928.689-3.33 4.937.288.862 2.468c.172.632-.173 1.034-.632 1.32z"/>
    <path fill="#E86767" d="M169.535 51.728l.747 2.181-2.297.919c-.459.172-.918.23-1.377.115-.976-.287-1.665-1.263-1.551-2.24l.173-1.205 4.305.23z"/>
    <path fill="#FF746F" d="M168.387 54.655l1.952.287 1.091-1.837c.229-.344.114-.746-.23-.976-.345-.23-.746-.115-.976.23l-1.837 2.296z"/>
    <path fill="#fff" d="M164.885 62.636l-4.076 1.033-1.435 11.77 4.708.172.803-12.975z"/>
    <path fill="#FE9280" d="M220.287 72.108l-7.119-.919 1.607-12.917 7.119.919c3.56.459 6.086 3.674 5.627 7.233-.46 3.617-3.675 6.143-7.234 5.684z"/>
    <path fill="#777470" d="M220.631 69.18l-7.119-.918-.344 2.928 7.119.918c3.559.46 6.832-2.067 7.234-5.626.057-.517.057-.976 0-1.493-.976 2.756-3.847 4.593-6.89 4.191z" opacity=".2"/>
    <path fill="#FFC957" d="M212.307 71.132l-75.266-9.76 1.608-12.86 75.266 9.703-1.608 12.917z"/>
    <path fill="#FFF4DD" d="M123.606 53.163l13.435 8.21 1.607-12.86-15.042 4.65z"/>
    <path fill="#777470" d="M123.606 53.163l13.435 8.21.402-3.158-13.837-5.052z" opacity=".2"/>
    <path fill="#2A294F" d="M128.085 51.785l-4.479 1.378 4.019 2.468.46-3.846z"/>
    <path fill="#D3EAF5" d="M220.162 59l-6.209-.782-1.62 12.874 6.209.782L220.162 59z"/>
    <path fill="#D3EAF5" d="M220.188 58.458l-2.108-.266-1.764 14.013 2.108.266 1.764-14.013z"/>
    <path fill="#777470" d="M216.383 71.649l-79.342-10.276.402-3.158 79.342 10.276-.402 3.158z" opacity=".2"/>
    <path fill="#777470" d="M217.646 61.889l-79.4-10.22.402-3.157 79.4 10.22-.402 3.157z" opacity=".05"/>
    <path fill="#777470" d="M219.001 68.184l-2.107-.265-.538 4.272 2.107.266.538-4.273z" opacity=".15"/>
    <path fill="#E86767" d="M192.213 103.11l1.033-2.755 3.56-.288c.631-.057 1.263.345 1.32.862.058.574-.402 1.09-1.091 1.148l-4.822 1.033z"/>
    <path fill="#FF746F" d="M190.376 100.355l1.837 2.756 3.502-.747-3.961-5.856-.747.517c-1.091.746-1.378 2.239-.631 3.33z"/>
    <path fill="#fff" d="M193.246 99.436l11.941-12.515-6.257-1.436-7.119 11.023 1.435 2.928z"/>
    <path fill="#fff" d="M200.595 86.404c.631 1.378 2.239 1.952 3.617 1.32 1.377-.631 1.952-2.239 1.32-3.617-.631-1.377-2.239-1.951-3.617-1.32-1.378.632-1.952 2.24-1.32 3.617z"/>
    <path fill="#fff" d="M201.514 87.495l3.674-3.904-12.86-15.33c-1.091-1.492-3.272-1.664-4.593-.343-1.32 1.32-1.205 5.913.287 7.061l13.492 12.516z"/>
    <path fill="#FF746F" d="M180.435 69.42l5.263.445.707-8.352-5.262-.446-.708 8.352z"/>
    <path fill="#fff" d="M161.498 73.659c-1.32.114-2.296 1.205-2.239 2.526.115 1.32 1.206 2.296 2.526 2.239 1.321-.115 2.297-1.206 2.239-2.526-.114-1.378-1.263-2.354-2.526-2.24z"/>
    <path fill="#fff" d="M159.947 74.003l2.412 4.306 14.697-3.33c1.78-.46 2.756-4.823 2.067-6.545-.689-1.722-2.756-2.411-4.364-1.493l-14.812 7.062z"/>
    <path fill="#fff" d="M190.376 98.23l1.607-28.016c.402-1.493-.631-2.986-2.181-3.215l-13.147-.46c-1.55-.23-2.871.976-2.928 2.526l-2.699 34.045 19.348-4.88z"/>
    <path fill="#1A55B5" d="M177.86 98.23l2.986 9.416-1.321 58.444h-5.396l-3.043-62.98.402-4.88h6.372z"/>
    <path fill="#527EE9" d="M177.86 98.23l2.928 11.54h2.125l19.003 56.32h4.42l-13.377-60.224-2.583-7.635H177.86z"/>
    <path fill="#FF746F" d="M164.541 50.924l-.115.517c-.172 1.148.574 2.181 1.722 2.353l.862.115c1.148.172 2.181-.574 2.353-1.722l.115-.517-4.937-.746z"/>
    <path fill="#1A55B5" d="M179.984 66.654l3.846.115-1.607 2.354v18.601l-2.239 4.765-2.067-5.74 2.871-17.798-.804-2.297zM190.434 54.655c-.115-1.263-.575-2.526-1.378-3.444-.747-.919-1.723-1.55-2.871-1.895-.517-.172-1.033-.287-1.607-.23-.689.058-1.378.173-2.067-.114-.919-.402-1.608-1.206-2.412-1.723-.172-.114-.401-.23-.631-.287-.861-.344-2.009-.23-2.871.345-.401.287-.746.689-.976 1.148-.229.46-.401.919-.401 1.435-.058.976.172 2.01.688 2.87.517.747 1.149 1.436 1.952 1.895-.057.23-.057.402-.057.632-.172 3.502 2.526 6.43 6.028 6.602 2.469.115 4.765-1.205 5.914-3.387.631-1.263.861-2.584.689-3.847zm-13.205-1.205c-.287-.345-.574-.69-.804-1.091-.517-.746-.804-1.665-.804-2.584.058-.918.46-1.837 1.149-2.41.287-.23.574-.345.918-.46-.172.057-.344.172-.459.287-.689.574-.976 1.493-1.033 2.354-.115 1.722.516 3.387 1.779 4.535v.058c-.229-.23-.516-.46-.746-.69z"/>
    <path fill="#FF746F" d="M187.505 58.444c-.115.632.344 1.263.976 1.378.631.115 1.263-.344 1.378-.976.115-.631-.345-1.263-.976-1.378-.632-.115-1.263.345-1.378.976z"/>
    <path fill="#FF746F" d="M182.338 51.728c-2.813-.058-3.904 2.296-3.904 2.296l-.172.804-.115.746v.115l-.345 2.067c-.459 2.813 1.321 5.626 4.134 6.143 2.871.516 5.569-1.378 6.086-4.249l.402-2.526c.057 0 .803-4.88-6.086-5.396z"/>
    <path fill="#fff" d="M182.913 58.387c-.287-.172-2.354-.574-2.584-.459-.287.172-.402.517-.287.804.057.287.287.517.517.689.574.402 1.378.459 1.952.172.229-.115.459-.287.574-.517.115-.23.057-.517-.172-.689z"/>
    <path fill="#1A55B5" d="M183.486 51.842c.689.115 1.378.287 2.067.574.517.173.976.46 1.378.804 1.32 1.148.115 3.56-.287 4.823-.115.287-.23.688-.057.918.229.287.688.23.976 0 .287-.23.401-.574.574-.861.172-.287.459-.574.803-.632l-.229-5.74c0-.058-3.617-.115-3.904-.115-.574-.058-1.321.23-1.321.23z"/>
</svg>
