<svg xmlns="http://www.w3.org/2000/svg" width="191" height="154" fill="none" viewBox="0 0 191 154">
    <g clip-path="url(#clip0)">
        <path fill="#F31D4B" d="M12.013 129.41c6.613 0 12.014 5.621 12.014 12.223 0 6.746-5.4 12.338-12.014 12.338C5.4 153.971 0 148.379 0 141.633c0-6.602 5.4-12.223 12.013-12.223zm0 18.248c3.12 0 5.632-2.681 5.632-6.025 0-3.287-2.513-5.91-5.632-5.91-3.176 0-5.63 2.623-5.63 5.91 0 3.344 2.483 6.025 5.63 6.025zM29.253 131.111c0-.635.52-1.125 1.126-1.125h2.166c.52 0 .866.289 1.01.634l.81 2.22c1.01-1.124 3.696-3.459 7.854-3.459 3.35 0 5.69 1.297 7.624 3.632 1.01-1.066 4.043-3.632 8.26-3.632 7.508 0 10.251 5.564 10.251 11.704v11.185c0 .577-.462 1.125-1.126 1.125h-4.736c-.636 0-1.126-.519-1.126-1.125v-11.588c0-3.056-1.473-4.988-4.39-4.988-3.407 0-4.938 2.451-4.938 2.451s.058 1.182.058 2.219v11.878c0 .576-.52 1.124-1.127 1.124h-4.39c-.634 0-1.125-.519-1.125-1.124v-11.589c0-3.056-1.358-4.988-4.332-4.988-2.946 0-4.332 2.105-4.938 3.69v12.887c0 .576-.52 1.124-1.126 1.124h-4.736c-.578 0-1.127-.519-1.127-1.124v-21.131h.058zM82.62 138.606c2.34 0 4.274.634 4.274.634.058-2.998-.866-4.036-3.06-4.036-2.167 0-5.228.461-6.556.865-.809.231-1.242-.288-1.357-1.067l-.52-3.055c-.173-.865.289-1.298.808-1.471.462-.173 4.217-1.124 7.97-1.124 7.336 0 9.04 3.805 9.04 10.176v12.714c0 .576-.52 1.124-1.127 1.124h-2.108c-.404 0-.693-.173-1.01-.807l-.694-1.586c-1.357 1.24-3.523 2.998-7.161 2.998-4.679 0-7.913-3.055-7.913-8.014.029-4.151 3.437-7.351 9.414-7.351zm.116 10.407c1.877 0 3.696-1.586 4.043-2.278v-3.228s-1.588-.692-3.292-.692c-2.282 0-3.812 1.297-3.812 3.171.029 1.73 1.242 3.027 3.06 3.027zM110.661 129.41c3.639 0 6.44 1.47 8.692 4.151.405.519.289 1.24-.288 1.643l-2.686 2.566c-.52.461-1.069.173-1.473-.173-.924-1.067-2.397-1.874-4.043-1.874-3.176 0-5.747 2.681-5.747 5.967 0 3.345 2.513 5.968 5.689 5.968 2.513 0 3.639-1.24 4.679-2.22.404-.403 1.01-.519 1.472-.173l2.513 2.162c.577.462.808 1.067.404 1.643-1.992 3.114-5.111 4.93-9.27 4.93-6.613 0-12.417-5.275-12.417-12.281-.03-6.918 5.891-12.309 12.475-12.309zM132.637 138.606c2.339 0 4.274.634 4.274.634.058-2.998-.866-4.036-3.061-4.036-2.166 0-5.227.461-6.556.865-.808.231-1.241-.288-1.357-1.067l-.52-3.055c-.173-.865.289-1.298.809-1.471.462-.173 4.216-1.124 7.97-1.124 7.335 0 9.039 3.805 9.039 10.176v12.714c0 .576-.52 1.124-1.126 1.124h-2.108c-.404 0-.693-.173-1.011-.807l-.693-1.586c-1.357 1.24-3.523 2.998-7.162 2.998-4.678 0-7.912-3.055-7.912-8.014.029-4.151 3.436-7.351 9.414-7.351zm.115 10.407c1.878 0 3.697-1.586 4.043-2.278v-3.228s-1.588-.692-3.292-.692c-2.281 0-3.812 1.297-3.812 3.171.029 1.73 1.242 3.027 3.061 3.027zM149.993 131.111c0-.635.52-1.125 1.126-1.125h2.224c.519 0 .866.289 1.068.75l.809 2.277c.808-1.182 3.003-3.632 6.613-3.632 2.743 0 5.227.865 4.505 2.335l-2.166 3.805c-.289.519-.866.75-1.357.519-.174-.057-1.069-.346-1.704-.346-2.339 0-3.754 1.586-4.159 2.393v14.155c0 .807-.519 1.124-1.357 1.124h-4.505c-.577 0-1.126-.519-1.126-1.124v-21.131h.029zM180.026 129.41c6.036 0 10.974 4.555 10.974 10.897 0 .403-.058 1.182-.115 1.585-.058.577-.578 1.009-1.127 1.009h-15.016c.173 2.393 2.223 5.103 5.631 5.103 1.819 0 3.523-.692 4.563-1.47.577-.346 1.126-.462 1.53 0l2.397 2.738c.404.404.52 1.067-.058 1.528-1.934 1.816-4.938 3.229-8.75 3.229-7.046 0-12.013-5.564-12.013-12.281.029-6.659 4.996-12.338 11.984-12.338zm4.101 9.369c-.173-2.162-2.05-3.978-4.274-3.978-2.339 0-4.274 1.758-4.563 3.978h8.837z"/>
        <path fill="#fff" d="M89.147 113.468c12.418 0 25.008-.433 37.426-1.269h.058c5.949-.432 11.724-3.171 16.258-7.697 4.534-4.526 7.249-10.292 7.624-16.201 1.213-20.93 1.213-42.147 0-63.076-.375-5.91-3.09-11.676-7.624-16.202-4.563-4.583-10.338-7.322-16.287-7.755h-.058C114.155.432 101.565 0 89.147 0v5.42V0c-8.75 0-17.645.202-26.395.634-6.006.317-11.81 2.998-16.374 7.524-4.534 4.526-7.248 10.35-7.623 16.375-1.242 21.361-1.242 43.011 0 64.344.375 6.025 3.09 11.82 7.623 16.375 4.563 4.554 10.368 7.207 16.374 7.524 8.75.461 17.645.692 26.395.692zm-29.687-6.602c-.577-.144-1.155-.317-1.704-.548-1.241-.461-2.425-1.038-3.552-1.729-.924-.577-1.819-1.211-2.656-1.903-.462-.404-.925-.807-1.329-1.24-.606-.605-1.184-1.239-1.704-1.902-.23-.289-.433-.577-.664-.865-.173-.26-.346-.49-.52-.75-.49-.75-.953-1.556-1.328-2.364-.144-.26-.26-.547-.375-.836-.838-1.96-1.358-4.007-1.473-6.14-.462-7.957-.751-15.942-.867-23.899-.028-1.326-.028-2.652-.057-4.007-.03-3.978 0-7.956.057-11.935.087-5.304.232-10.608.463-15.942.115-2.652.26-5.304.404-7.956.346-5.478 3.234-10.58 7.393-14.097 1.155-.98 2.425-1.845 3.754-2.537 1.328-.692 2.743-1.268 4.187-1.643 1.155-.288 2.34-.49 3.552-.548h.029l3.61-.173c.404-.029.78-.029 1.184-.058l2.483-.086c.462-.029.896-.029 1.358-.058.78-.029 1.559-.057 2.368-.057.462 0 .895-.03 1.357-.03.837-.028 1.704-.028 2.541-.057.376 0 .75-.029 1.097-.029 1.213-.028 2.426-.028 3.64-.057h.577c1.04 0 2.05-.03 3.09-.03h7.797c1.213 0 2.425.03 3.638.059h.693l4.303.086c.433 0 .896.029 1.329.029l3.003.086c.549.03 1.097.03 1.646.058.895.029 1.819.058 2.715.115.577.03 1.126.058 1.703.058.896.029 1.82.086 2.715.115l1.646.087c.982.057 1.964.115 2.917.173l1.415.086c1.444.087 2.888.173 4.331.288 9.646.721 18.251 9.312 18.858 18.825 1.213 20.814 1.213 41.628 0 62.47-.087 1.183-.289 2.365-.578 3.518-1.415 5.16-5.053 9.773-9.732 12.54-1.819 1.096-3.783 1.903-5.833 2.364-.347.087-.664.144-1.011.202-.548.086-1.097.173-1.646.202-1.444.086-2.888.201-4.332.288l-1.386.086c-.462.029-.924.058-1.357.087l-1.588.086c-.549.029-1.098.058-1.617.087-.52.029-1.011.058-1.531.086-.404.029-.809.029-1.213.058-.549.029-1.126.058-1.675.058-.924.028-1.848.086-2.772.115-.52.029-1.069.029-1.588.058l-3.09.086c-.433 0-.838.029-1.271.029l-4.332.086h-.606c-1.242.029-2.484.029-3.725.058H86.403c-1.04 0-2.05 0-3.09-.029h-.548c-1.213 0-2.426-.029-3.639-.057-.375 0-.722-.029-1.097-.029-.867-.029-1.733-.029-2.57-.058h-.318c-.347 0-.664-.029-1.01-.029-.81-.029-1.589-.057-2.398-.057-.433 0-.837-.029-1.27-.029h-.087l-2.512-.087c-.376-.029-.78-.029-1.155-.057l-3.639-.173c-1.27-.058-2.455-.26-3.61-.548z"/>
        <path fill="#fff" d="M63.04 6.025h-.028c-1.213.058-2.397.26-3.552.548 1.155-.288 2.34-.49 3.552-.548h.029zM43.26 64.69c-.029-1.326-.029-2.652-.058-4.007.029 1.355.029 2.681.058 4.007zM51.519 10.753c1.155-.98 2.425-1.845 3.754-2.537-1.329.72-2.6 1.557-3.754 2.537zM55.273 8.216c1.328-.692 2.743-1.268 4.187-1.643-1.444.403-2.86.951-4.188 1.643zM117.534 6.14c.982.058 1.964.115 2.917.173-.953-.058-1.935-.115-2.917-.173zM121.895 6.4c1.443.086 2.887.173 4.331.288-1.473-.115-2.916-.202-4.331-.288zM113.231 80.229l21.572-23.005c.809-.865.809-2.191.029-3.056-1.704-1.874-3.812-2.854-6.266-2.94-4.361-.145-9.559 2.68-15.883 8.533-.174-.058-.347-.116-.491-.144-.145-9.571-.087-17.614-.029-24.1.029-3.028.029-5.824.029-8.39 0-5.189-3.841-7.985-7.422-7.985-.924 0-1.79.173-2.628.519-.317-5.276-3.956-8.159-7.421-8.159-2.022 0-3.841.894-5.17 2.508-.953 1.154-1.56 2.653-1.848 4.353-.924-.432-1.935-.662-2.974-.662-3.552 0-7.306 2.738-7.306 7.783 0 1.441-.058 4.238-.174 7.524-.49-.144-.982-.23-1.53-.26-3.437-.114-7.45 2.163-7.913 6.112-3.119 25.196-2.166 48.374 2.657 68.871.433.029.837.029 1.27.029.81.028 1.589.057 2.397.057.347 0 .665.029 1.011.029-4.967-20.266-5.949-43.3-2.859-68.467.174-1.297 1.82-2.248 3.292-2.162 1.473.058 1.502.98 1.53 1.442 0 .403-.028.807-.028 1.21-.173 5.507-.346 10.724-.346 12.685 0 1.24 1.01 2.248 2.252 2.248 1.242 0 2.252-1.009 2.252-2.248 0-1.874.174-7.063.347-12.54.202-5.94.404-12.08.404-14.53 0-2.45 1.53-3.315 2.83-3.315 1.329 0 2.773.893 2.773 3.402v23.206c0 1.24 1.01 2.249 2.252 2.249 1.242 0 2.253-1.01 2.253-2.249V21.65c0-.173-.058-.317-.087-.49.029-.173.087-.317.087-.49 0-2.105.577-3.229 1.04-3.806 1.53-1.873 4.706-.605 4.706 3.546v26.061c0 1.24 1.011 2.249 2.253 2.249 1.242 0 2.252-1.01 2.252-2.249V27.243c0-1.269.318-2.278.896-2.912.548-.577 1.212-.692 1.675-.692 1.472 0 2.945 1.21 2.945 3.488 0 2.566-.029 5.334-.029 8.36-.058 6.371-.086 14.213.029 23.495-6.988-.028-14.266 4.44-21.659 13.406-.78.95-.664 2.363.29 3.142.404.346.923.519 1.414.519.636 0 1.3-.289 1.733-.808 8.288-10.003 15.97-13.664 22.871-10.81.087.029.174.029.289.058.174.057.376.115.578.115.173 0 .317-.058.462-.087.115-.028.26-.028.375-.086.202-.087.376-.202.549-.346.058-.058.115-.058.173-.115l.029-.03c7.191-6.918 11.378-8.33 13.602-8.215.491.029.953.115 1.386.26l-20.561 21.909c-.029.028-.029.057-.029.057-.116.116-.174.26-.26.404-.058.115-.145.23-.173.346-.029.115-.029.26-.058.375-.029.173-.058.317-.058.49v.086c1.011 10.177 2.946 19.43 5.747 27.762.52-.029 1.011-.058 1.53-.058l1.618-.086 1.588-.087c-3.032-8.014-4.996-17.009-6.065-26.954z"/>
        <path fill="#F31D4B" d="M108.64 79.681v-.086c0-.173.029-.317.058-.49.029-.116.029-.26.057-.375.029-.115.116-.23.174-.346.086-.144.144-.288.26-.404.029-.028.029-.057.029-.057l20.561-21.91c-.433-.173-.895-.26-1.386-.26-2.224-.114-6.44 1.298-13.602 8.217l-.029.029c-.058.057-.115.057-.173.115-.173.144-.347.26-.549.346-.115.058-.26.058-.375.087-.145.028-.318.086-.462.086-.202 0-.376-.058-.578-.115-.086-.03-.173-.03-.289-.058-6.902-2.825-14.583.807-22.871 10.81-.433.548-1.097.808-1.733.808-.49 0-1.01-.173-1.415-.52-.953-.778-1.097-2.19-.289-3.141 7.393-8.966 14.67-13.434 21.659-13.406-.116-9.282-.058-17.123-.029-23.494.029-3.027.029-5.795.029-8.36 0-2.307-1.473-3.489-2.946-3.489-.462 0-1.126.116-1.675.692-.577.634-.895 1.614-.895 2.912V46.5c0 1.24-1.01 2.249-2.252 2.249-1.242 0-2.253-1.01-2.253-2.249V20.41c0-4.18-3.176-5.42-4.707-3.545-.49.576-1.04 1.7-1.04 3.805 0 .173-.057.317-.086.49.029.173.087.317.087.49v27.156c0 1.24-1.011 2.249-2.253 2.249-1.242 0-2.252-1.009-2.252-2.249V25.6c0-2.508-1.444-3.402-2.773-3.402-1.3 0-2.83.865-2.83 3.315s-.202 8.591-.404 14.53c-.173 5.477-.347 10.666-.347 12.54 0 1.24-1.01 2.248-2.252 2.248-1.242 0-2.253-1.009-2.253-2.248 0-1.96.174-7.15.347-12.684 0-.404.029-.808.029-1.211-.03-.433-.058-1.384-1.53-1.442-1.474-.086-3.12.865-3.293 2.162-3.09 25.167-2.108 48.201 2.86 68.467h.317c.866.029 1.732.029 2.57.058.375 0 .722.029 1.097.029 1.213.029 2.426.029 3.639.057h.549c1.04 0 2.05.029 3.09.029h7.797c1.241 0 2.483-.029 3.725-.057h.606l4.332-.087c.433 0 .838-.029 1.271-.029l3.09-.086c.519-.029 1.068-.029 1.588-.058.924-.029 1.848-.058 2.772-.115.549-.029 1.127-.058 1.675-.058.404-.029.809-.029 1.213-.058-2.743-8.388-4.649-17.642-5.66-27.819z"/>
        <path fill="#F31D4B" d="M66.65 107.586c.376.029.78.029 1.156.058l2.512.087h.087c-4.823-20.497-5.776-43.646-2.657-68.87.49-3.95 4.505-6.228 7.912-6.112.55.028 1.04.115 1.531.259.087-3.286.173-6.083.173-7.524 0-5.074 3.754-7.784 7.306-7.784 1.069 0 2.05.23 2.975.663.289-1.7.895-3.2 1.848-4.353 1.329-1.614 3.177-2.508 5.17-2.508 3.465 0 7.103 2.883 7.421 8.187.809-.346 1.704-.518 2.628-.518 3.61 0 7.422 2.796 7.422 7.985 0 2.594-.029 5.362-.029 8.389-.058 6.515-.116 14.558.029 24.1.173.058.346.115.49.144 6.296-5.852 11.494-8.677 15.883-8.533 2.455.087 4.563 1.067 6.267 2.94.78.866.78 2.192-.029 3.056l-21.572 23.005c1.069 9.917 3.032 18.912 5.891 26.983.462-.028.924-.057 1.358-.086l1.386-.086c1.444-.087 2.888-.173 4.331-.289.549-.029 1.098-.115 1.646-.202.347-.057.694-.115 1.011-.201 2.051-.462 4.014-1.269 5.834-2.364 4.678-2.797 8.345-7.38 9.732-12.54.317-1.154.519-2.336.577-3.518 1.213-20.813 1.213-41.627 0-62.47-.606-9.514-9.212-18.133-18.857-18.825-1.444-.086-2.888-.202-4.332-.288-.462-.03-.953-.058-1.415-.087-.982-.057-1.964-.115-2.917-.173l-1.646-.086c-.895-.058-1.819-.087-2.714-.115-.578-.03-1.127-.058-1.704-.058-.895-.029-1.819-.058-2.715-.115-.548-.03-1.097-.03-1.646-.058l-3.003-.087c-.433 0-.895-.028-1.328-.028l-4.303-.087h-.693c-1.213-.029-2.426-.029-3.639-.058H86.23c-1.04 0-2.05 0-3.09.03h-.578c-1.212 0-2.425.028-3.638.057-.376 0-.751.029-1.098.029-.837.029-1.703.029-2.54.057-.463 0-.896.03-1.358.03-.78.028-1.56.057-2.368.057-.462.029-.895.029-1.358.058l-2.483.086c-.404.029-.78.029-1.184.058-1.213.057-2.397.115-3.61.173h-.029c-1.212.057-2.397.26-3.552.547-1.444.375-2.859.923-4.187 1.644-1.328.691-2.599 1.556-3.754 2.537-4.159 3.517-7.046 8.648-7.393 14.096-.144 2.653-.289 5.305-.404 7.957-.231 5.304-.376 10.609-.462 15.942-.058 3.978-.058 7.957-.058 11.935 0 1.326.029 2.652.058 4.007.115 7.957.404 15.942.866 23.899.144 2.133.664 4.208 1.473 6.14.115.288.23.548.375.836.405.807.838 1.614 1.329 2.364.173.26.346.519.52.75.202.288.433.576.664.864.52.663 1.097 1.297 1.703 1.903.434.432.867.836 1.329 1.239.837.721 1.733 1.355 2.657 1.903 1.126.692 2.31 1.269 3.552 1.73.577.202 1.126.375 1.703.548 1.156.288 2.34.49 3.553.547 1.357.029 2.57.087 3.782.144z"/>
        <path fill="#F31D4B" d="M66.65 107.586c.376.029.78.029 1.156.058l2.512.087h.087c-4.823-20.497-5.776-43.646-2.657-68.87.49-3.95 4.505-6.228 7.912-6.112.55.028 1.04.115 1.531.259.087-3.286.173-6.083.173-7.524 0-5.074 3.754-7.784 7.306-7.784 1.069 0 2.05.23 2.975.663.289-1.7.895-3.2 1.848-4.353 1.329-1.614 3.177-2.508 5.17-2.508 3.465 0 7.103 2.883 7.421 8.187.809-.346 1.704-.518 2.628-.518 3.61 0 7.422 2.796 7.422 7.985 0 2.594-.029 5.362-.029 8.389-.058 6.515-.116 14.558.029 24.1.173.058.346.115.49.144 6.296-5.852 11.494-8.677 15.883-8.533 2.455.087 4.563 1.067 6.267 2.94.78.866.78 2.192-.029 3.056l-21.572 23.005c1.069 9.917 3.032 18.912 5.891 26.983.462-.028.924-.057 1.358-.086l1.386-.086c1.444-.087 2.888-.173 4.331-.289.549-.029 1.098-.115 1.646-.202.347-.057.694-.115 1.011-.201 2.051-.462 4.014-1.269 5.834-2.364 4.678-2.797 8.345-7.38 9.732-12.54.317-1.154.519-2.336.577-3.518 1.213-20.813 1.213-41.627 0-62.47-.606-9.514-9.212-18.133-18.857-18.825-1.444-.086-2.888-.202-4.332-.288-.462-.03-.953-.058-1.415-.087-.982-.057-1.964-.115-2.917-.173l-1.646-.086c-.895-.058-1.819-.087-2.714-.115-.578-.03-1.127-.058-1.704-.058-.895-.029-1.819-.058-2.715-.115-.548-.03-1.097-.03-1.646-.058l-3.003-.087c-.433 0-.895-.028-1.328-.028l-4.303-.087h-.693c-1.213-.029-2.426-.029-3.639-.058H86.23c-1.04 0-2.05 0-3.09.03h-.578c-1.212 0-2.425.028-3.638.057-.376 0-.751.029-1.098.029-.837.029-1.703.029-2.54.057-.463 0-.896.03-1.358.03-.78.028-1.56.057-2.368.057-.462.029-.895.029-1.358.058l-2.483.086c-.404.029-.78.029-1.184.058-1.213.057-2.397.115-3.61.173h-.029c-1.212.057-2.397.26-3.552.547-1.444.375-2.859.923-4.187 1.644-1.328.691-2.599 1.556-3.754 2.537-4.159 3.517-7.046 8.648-7.393 14.096-.144 2.653-.289 5.305-.404 7.957-.231 5.304-.376 10.609-.462 15.942-.058 3.978-.058 7.957-.058 11.935 0 1.326.029 2.652.058 4.007.115 7.957.404 15.942.866 23.899.144 2.133.664 4.208 1.473 6.14.115.288.23.548.375.836.405.807.838 1.614 1.329 2.364.173.26.346.519.52.75.202.288.433.576.664.864.52.663 1.097 1.297 1.703 1.903.434.432.867.836 1.329 1.239.837.721 1.733 1.355 2.657 1.903 1.126.692 2.31 1.269 3.552 1.73.577.202 1.126.375 1.703.548 1.156.288 2.34.49 3.553.547 1.357.029 2.57.087 3.782.144z"/>
    </g>
    <defs>
        <clipPath id="clip0">
            <path fill="#fff" d="M0 0H191V154H0z"/>
        </clipPath>
    </defs>
</svg>
