<svg xmlns="http://www.w3.org/2000/svg" width="266" height="285" fill="none" viewBox="0 0 266 285">
    <g clip-path="url(#clip0)">
        <path fill="#D1F7FA" d="M101.413 55.612c-.04 0-.119-.04-.158-.079-.04-.079-.04-.198.039-.238.04 0 2.296-1.744 5.423-.198.079.04.119.159.079.238-.039.08-.158.119-.237.08-2.929-1.428-4.988.118-5.067.158 0 .04-.04.04-.079.04z"/>
        <path fill="#FCC13F" d="M151.129 238.544c-64.64-33.812-86.648-68.892-93.694-92.675h41.523c-.237 3.726-1.345 7.413-3.206 10.623-.91 1.507-1.425 3.29-1.425 5.074 0 5.431 4.434 9.87 9.856 9.87 5.423 0 9.857-4.439 9.857-9.87 0-1.784-.475-3.567-1.425-5.113-1.861-3.211-2.969-6.897-3.207-10.623h41.761v38.726l.752-.079c3.721-.317 7.362-1.506 10.569-3.369 1.306-.793 2.85-1.229 4.393-1.229 4.671 0 8.432 3.805 8.432 8.443 0 4.677-3.8 8.443-8.432 8.443-1.543 0-3.047-.436-4.354-1.229-3.246-1.863-6.887-3.052-10.568-3.369l-.753-.079v46.456h-.079z"/>
        <path fill="#8CD334" d="M152.554 193.752c3.286.397 6.373 1.427 9.223 3.092 1.504.912 3.286 1.427 5.067 1.427 5.423 0 9.856-4.439 9.856-9.87 0-5.43-4.433-9.87-9.856-9.87-1.821 0-3.563.476-5.106 1.427-2.85 1.665-5.938 2.696-9.223 3.092v-37.181h49.162l.04-.674c.158-4.796-1.029-9.552-3.444-13.714-.792-1.309-1.227-2.854-1.227-4.4 0-4.678 3.8-8.443 8.431-8.443 4.671 0 8.431 3.805 8.431 8.443 0 1.546-.435 3.052-1.227 4.36-2.414 4.162-3.602 8.919-3.443 13.715l.039.674h36.931c-7.006 23.783-29.054 58.863-93.693 92.674v-44.752h.039z"/>
        <path fill="#96D9C9" d="M152.356 238.821v-45.267l.198.04c3.286.396 6.413 1.427 9.302 3.131 1.505.912 3.246 1.388 4.988 1.388 5.344 0 9.658-4.361 9.658-9.672 0-5.351-4.354-9.672-9.658-9.672-1.781 0-3.483.476-4.988 1.387-2.889 1.665-5.977 2.696-9.302 3.092l-.198.04V145.75h49.163v-.515c.158-4.796-1.029-9.474-3.404-13.636-.831-1.347-1.227-2.893-1.227-4.479 0-4.756 3.879-8.641 8.629-8.641s8.629 3.885 8.629 8.641c0 1.586-.435 3.132-1.227 4.479-2.415 4.123-3.563 8.84-3.404 13.636v.515h37.01l-.079.238c-6.967 23.585-28.856 58.823-93.773 92.794l-.317.039zm.357-44.87v44.276c64.402-33.772 86.291-68.733 93.258-92.199h-36.892l-.039-.833c-.159-4.836 1.029-9.632 3.483-13.834.792-1.308 1.188-2.774 1.188-4.28 0-4.559-3.721-8.285-8.273-8.285s-8.273 3.726-8.273 8.285c0 1.506.396 3.012 1.187 4.28 2.415 4.202 3.642 8.959 3.484 13.834l-.04.833h-49.083v36.784c3.166-.396 6.175-1.427 8.946-3.052 1.543-.951 3.364-1.427 5.185-1.427 5.542 0 10.015 4.519 10.015 10.029 0 5.549-4.513 10.028-10.015 10.028-1.821 0-3.642-.515-5.185-1.427-2.771-1.586-5.78-2.616-8.946-3.012z"/>
        <path fill="#F31D4B" d="M104.184 170.049c-4.671 0-8.432-3.806-8.432-8.443 0-1.546.436-3.053 1.227-4.361 2.138-3.646 3.325-7.808 3.444-12.05l.04-.713H57.04c-1.821-6.62-2.731-13.279-2.731-19.819 0-15.182 4.79-29.333 13.498-39.916 8.945-10.9 21.374-16.886 34.912-16.886 16.625 0 28.935 6.937 36.298 12.763 7.323 5.748 11.4 11.575 12.112 12.645v17.917c-2.968-.476-5.818-1.467-8.431-2.973-1.504-.912-3.285-1.427-5.066-1.427-5.423 0-9.857 4.439-9.857 9.87 0 5.43 4.434 9.87 9.857 9.87 1.781 0 3.562-.476 5.106-1.427 2.612-1.507 5.423-2.498 8.391-2.973v22.435h-43.185l.04.714c.158 4.201 1.345 8.363 3.443 12.01.792 1.308 1.227 2.854 1.227 4.4-.039 4.558-3.839 8.364-8.47 8.364z"/>
        <path fill="#F8A492" d="M102.956 64.055c-1.979.317-1.86.634-2.138.674-.316.04-3.879-1.744-3.879-1.744s-10.608-5.232-11.162-5.51l-7.64-9.592-5.898 2.695s8.59 10.227 9.144 10.663c.554.436 15.754 5.787 17.06 6.302 0 0 1.346 1.23 2.178 1.943.87.753 2.018 1.03 2.295 1.189.04.04.99.515 2.336.832 1.148.238.198-.515.198-.515s-2.059-.872-1.94-1.03c.079-.12 1.148.435 2.454.713.317.08.634.158.95.198.792.159 1.148-.277.357-.595-.278-.118-.753-.277-1.109-.356-.396-.08-.712-.278-.989-.397-.594-.238-1.069-.396-1.03-.396.04-.04-.039-.159.277-.08.436.08 1.267.476 1.901.516.356.04 1.108.159 1.108.159s1.306.118 1.306-.04c0-.397-.792-.634-1.306-.634-.317-.159-1.108-.278-1.108-.278s-1.544-.594-1.425-.832c.039-.08.95.04 1.939.119 1.029.079 1.781.079 1.821-.12.079-.316-.752-.435-.752-.435l-.95-.159-1.108-.317s-2.811-1.03-2.692-1.229c.119-.198.554-.634.752-.634.198 0 .554.198.752.198.198 0 .633-.04.633-.277.04-.238-1.068-.753-1.068-.753s-.713-.357-1.267-.278z"/>
        <path fill="#2BA14C" d="M83.442 53.789s-1.9 1.744-2.692 2.299c-.673.476-3.88 2.021-3.88 2.021s-3.206-4.875-4.591-7.333c-1.702-2.973-2.89-7.412-2.454-7.53 1.108-.318 2.691-.556 4.117.118 4.908 2.26 9.5 10.425 9.5 10.425z"/>
        <path fill="#FE875E" d="M101.096 66.632c.831.119 1.702-.04 2.098-.793.079.912-1.307 1.348-2.098.793z"/>
        <path fill="#F7A491" d="M52.21 128.389s-.197 3.726-.197 3.765c-.08.476-.396 1.665-.396 2.101 0 1.625 7.204-1.387 5.581-2.101-.158-.079-.91-.555-.95-1.11-.079-.832-.277-2.576-.277-2.576l-3.76-.079z"/>
        <path fill="#2D2861" d="M57.198 132.115s-1.702.515-2.573.634c-.87.119-2.019-.912-2.612-.634-.673.317-.634 3.091-.634 3.091s9.065.793 11.638-.039c.99-.317-2.336-1.903-5.819-3.052z"/>
        <path fill="#F7A491" d="M40.612 128.151s-.198 3.726-.198 3.766c-.079.475-.395 1.664-.395 2.1 0 1.626 7.204-1.387 5.58-2.1-.157-.08-1.147-.912-1.187-1.467-.079-.832-.04-2.22-.04-2.22l-3.76-.079z"/>
        <path fill="#2D2861" d="M45.6 131.877s-1.702.515-2.573.634c-.87.119-2.019-.912-2.612-.634-.673.317-.713 3.092-.713 3.092s9.025.356 11.677-.04c1.069-.159-2.296-1.903-5.779-3.052zM42.275 69.09s-1.227 6.302-.712 11.098c.514 4.797.554 21.802.554 21.802l-1.9 27.231 4.512.119s5.344-27.192 5.265-26.518c-.119.713 1.781-19.145 1.781-19.145l-6.373-15.182-3.127.595z"/>
        <path fill="#352E73" d="M43.977 65.007s-5.542 5.827-3.483 12.169c.83 2.537 8.55 26.954 8.629 28.975.118 1.982 2.612 24.061 2.612 24.061l5.265-.159 1.148-24.536-1.505-33.058-3.166-5.59-9.5-1.862z"/>
        <path fill="#8CD334" d="M77.583 46.139c-1.82-2.022-5.779-4.955-5.779-4.955s-2.335-2.021-3.325-2.339c-1.425-.475-3.84-1.783-7.323 3.528-2.493 3.806-18.287 23.387-20.86 24.06l16.902 8.087c.475-3.845 8.827-11.138 10.015-12.526 2.77-3.092 12.112-13.953 10.37-15.855z"/>
        <path fill="#F7A491" d="M76.832 37.855l-5.265 3.091s-.158 4.48 1.584 5.669c1.464.99 2.533-1.388 2.533-1.388s1.98-2.695 3.444-3.567c1.464-.833-2.296-3.805-2.296-3.805z"/>
        <path fill="#F47458" d="M75.921 39.836c.198.952.673 2.3 1.386 3.41.593-.635 1.227-1.23 1.82-1.586.673-.397.238-1.229-.435-2.022-.95-.99-1.86-1.783-1.86-1.783l-1.03.594c-.079.357.04 1.07.12 1.387z"/>
        <path fill="#F7A491" d="M79.563 30.125c-.08-.119-4.434 5.272-3.88 7.809.515 2.537 3.167 4.836 4.988 4.202 2.019-.714 5.74-7.056 4.433-10.108-1.385-3.092-5.541-1.903-5.541-1.903z"/>
        <path fill="#FF7A03" d="M84.314 28.42c-1.9-1.03-4.988-1.347-7.284-.158-2.85 1.467-3.483 5.193-2.573 7.492.871 2.26-.118 3.567-.118 3.567l1.504-.872s.87-1.348.99-2.457c.118-1.07 1.701-.912 2.493-1.388.594-.396 1.346-1.625 2.335-2.26 0 0 2.454-.316 3.642.358 1.98 1.15 1.702-2.775-.99-4.281z"/>
        <path fill="#F8A492" d="M92.664 71.983c-2.058-.238-2.058-.08-2.335-.119-.317-.04-3.523-2.814-3.523-2.814s-9.54-8.086-10.054-8.562l-5.225-11.574-6.927 1.03s6.452 13.596 6.887 14.19c.436.595 14.606 8.84 15.834 9.712 0 0 1.068 1.546 1.78 2.537.713.951 1.822 1.586 2.059 1.823.04.04.87.793 2.177 1.467 1.108.555.317-.476.317-.476s-1.86-1.427-1.742-1.546c.119-.079 1.069.754 2.296 1.388.317.158.633.317.91.475.753.397 1.188.04.475-.475-.237-.198-.673-.476-1.029-.674-.356-.198-.633-.476-.91-.674-.554-.396-.95-.674-.91-.674.039 0-.04-.198.276-.04.396.199 1.188.793 1.821 1.07l1.069.477s1.069.118 1.108.079c.198-.317-.435-.595-.91-.714-.277-.238-1.03-.594-1.03-.594s-1.385-1.03-1.266-1.23c.04-.078.871.477 1.9.873 1.148.436 1.702.198 1.821 0 .158-.278-.554-.476-.554-.476s-.99-.238-1.188-.356c-.277-.159-3.364-2.498-3.245-2.656.158-.159.633-.159.83-.12.199.04.555.199.753.239.198.04.554-.159.633-.397.08-.238-.673-.674-.673-.674s-.831-.436-1.425-.515z"/>
        <path fill="#2BA14C" d="M65.708 55.573s1.98-.634 3.246-1.229c.871-.396 4.592-2.26 4.592-2.26s-1.623-6.777-2.692-9.195c-3.998-8.919-8.51-2.775-9.143-1.348-1.346 3.29 3.997 14.032 3.997 14.032z"/>
        <path fill="#ADEFF7" d="M210.663 144.442c-.04-4.32 1.108-8.562 3.285-12.288.911-1.506 1.425-3.29 1.425-5.073 0-5.431-4.433-9.87-9.856-9.87s-9.856 4.439-9.856 9.87c0 1.783.475 3.567 1.425 5.113 2.177 3.726 3.285 7.967 3.245 12.288h-47.777v-24.021l-.791.079c-3.444.436-6.729 1.507-9.738 3.29-1.306.793-2.85 1.229-4.394 1.229-4.67 0-8.431-3.805-8.431-8.443 0-4.677 3.8-8.443 8.431-8.443 1.544 0 3.048.436 4.355 1.229 3.008 1.744 6.293 2.854 9.737 3.29l.792.079V93.269c.712-1.07 4.789-6.897 12.112-12.645 7.402-5.826 19.673-12.763 36.298-12.763 13.577 0 25.967 5.985 34.913 16.886 8.708 10.583 13.498 24.774 13.498 39.916 0 6.54-.911 13.199-2.732 19.819h-35.941v-.04z"/>
        <path fill="#7271B3" d="M246.921 175.717h-14.329c-.713 0-1.267-.595-1.267-1.268 0-.714.594-1.269 1.267-1.269h14.329c.712 0 1.267.595 1.267 1.269.039.673-.555 1.268-1.267 1.268z"/>
        <path fill="#352E73" d="M248.347 177.739h-17.14c-.712 0-1.267-.595-1.267-1.269 0-.713.594-1.268 1.267-1.268h17.14c.712 0 1.266.594 1.266 1.268s-.554 1.269-1.266 1.269z"/>
        <path fill="#F7A491" d="M198.115 263.318s-1.306 1.308-1.345 1.783c-.04.476-.119 5.629.435 6.105.554.475 2.138.832 1.623 1.347-.396.397-3.325.318-5.304.199-.554-.04-1.306-4.678-1.504-5.352-.317-.99-1.505-3.131-1.227-3.844.158-.318 1.227-1.11 2.216-1.745 1.029-.673 2.019-2.18 2.019-2.18l3.087 3.687zM215.729 266.529s-1.187 3.369-1.187 3.408c-.079.555-.436 1.863-.436 2.339 0 1.823 8.155-1.546 6.294-2.378-.158-.079-.673-.674-.752-1.269-.079-.951.673-2.18.673-2.18l-4.592.08z"/>
        <path fill="#2D2861" d="M226.971 202.274l2.929 7.651s1.94 18.233.792 29.134c-.475 4.558-10.608 28.975-10.608 28.975l-5.027-.713 6.729-28.936-2.494-11.059-3.523-21.881 11.202-3.171z"/>
        <path fill="#352E73" d="M213.117 202.671l-2.533 8.522-3.84 25.686-12.983 24.021s1.939 3.012 4.037 3.488l18.446-24.259 10.015-30.402-.357-6.739-12.785-.317z"/>
        <path fill="#F8A492" d="M251.909 188.52c-1.504.674-1.346.951-1.544 1.07-.237.079-3.404-.911-3.404-.911s-9.421-2.894-9.896-3.092l-7.917-7.65-4.156 3.726s8.788 8.046 9.302 8.363c.515.317 13.577 2.458 14.725 2.656 0 0 1.307.912 2.098 1.427.831.515 1.781.595 2.059.674.039 0 .87.317 2.018.317.95 0 .04-.555.04-.555s-1.781-.436-1.742-.595c.04-.118.99.159 2.059.199h.791c.673 0 .831-.476.159-.635-.238-.039-.634-.118-.95-.118-.317 0-.594-.119-.871-.199-.515-.119-.911-.158-.911-.198 0-.04-.079-.158.238-.158.356 0 1.108.198 1.623.158.277-.04.91-.04.91-.04s.99-.158.99-.237c.039-.397-.713-.516-1.109-.397-.277-.079-.91-.039-.91-.039s-1.306-.278-1.306-.516c.039-.198 3.285-.277 3.285-.674 0-.317-.989-.356-.989-.356s-.594.039-.792.039c-.238 0-.95-.079-.95-.079s-2.415-.436-2.375-.634c.039-.198.317-.714.475-.753.158-.04.475.079.633.039.159-.039.317-.237.317-.475-.04-.238-.831-.436-.831-.436s-.634-.119-1.069.079z"/>
        <path fill="#FFA42F" d="M231.959 179.879l-3.958 5.391s-3.484-4.202-5.067-6.303c-1.9-2.576-3.998-6.104-3.681-6.302.87-.555 1.939-1.11 3.245-.793 4.394 1.149 9.461 8.007 9.461 8.007z"/>
        <path fill="#2D2861" d="M193.048 261.812s2.771 8.522 3.959 8.918c.316.119 2.098.555 2.375 1.229v.079c.079.436-.277.833-.713.833h-5.66s-.792-3.845-1.108-5.51c0 0-1.663-4.122-1.505-4.479.238-.357 2.652-1.07 2.652-1.07zM213.671 272.87l.91-2.973s1.979.833 2.969.714c.99-.119 2.89-.714 2.89-.714 3.918 1.309 7.085 1.943 6.531 2.973h-13.3z"/>
        <path fill="#FE875E" d="M250.682 191.136c.712-.04 1.306-.357 1.741-1.031-.158.952-1.108 1.348-1.741 1.031z"/>
        <path fill="#FCC13F" d="M214.107 171.713s-4.711.515-6.294 1.07c-1.306.476-3.087 4.797-3.087 4.797s7.164 20.691 6.887 24.417c-.277 3.686-1.069 9.196-1.069 9.196s14.092.872 19.436-1.229c0 0-1.702-8.403-1.702-10.583 0-2.22-.95-24.219-1.623-25.369-.673-1.149-2.019-1.823-4.592-2.378-2.612-.595-7.956.079-7.956.079z"/>
        <path fill="#F7A491" d="M215.056 165.53l-.95 6.144s2.811 3.25 4.869 2.616c1.702-.515 1.267-2.933 1.267-2.933s-.95-3.488-.673-5.232c.317-1.705-4.513-.595-4.513-.595z"/>
        <path fill="#FE875E" d="M219.609 166.164c.277-1.744-4.552-.595-4.552-.595l-.079.516c.158.356.316.634.514.872 1.069 1.149 2.771 1.863 4.236 1.902-.159-.991-.238-1.981-.119-2.695z"/>
        <path fill="#F7A491" d="M214.265 156.849c-.118-.04-1.108 7.016.713 8.958 1.821 1.942 5.344 2.577 6.61 1.031 1.386-1.705 1.346-9.276-1.504-11.297-2.81-1.982-5.819 1.308-5.819 1.308z"/>
        <path fill="#2D2861" d="M219.055 151.775c-2.177.436-3.602 1.784-4.117 2.339-.99.119-2.335.674-3.721 2.933-1.702 2.815-.435 5.946 1.544 7.452 1.979 1.546 1.979 3.29 1.979 3.29l.317-.911c.237-.674.316-1.427.237-2.141-.039-.436-.158-.912-.316-1.308-.475-1.031 1.029-1.704 1.464-2.537.317-.674.356-2.14.871-3.25l.594-.833s1.425-1.11 2.81-.792c1.306.356 1.109-4.797-1.662-4.242z"/>
        <path fill="#F7A491" d="M216.284 162.161c0 .872-.396 1.585-.871 1.585-.514 0-.91-.674-.95-1.546-.039-.872.396-1.585.871-1.585.554 0 .95.713.95 1.546z"/>
        <path fill="#AA0F38" d="M222.69 201.64h28.421v-24.695H222.69v24.695z"/>
        <path fill="#F31D4B" d="M240.372 201.64h24.66v-24.695h-24.66v24.695z"/>
        <path fill="#F8A492" d="M239.915 201.085c-1.465-.436-18.09-4.677-18.723-5.113-.633-.396-10.885-10.029-10.885-10.029l5.898-3.131 9.183 9.077c.633.278 12.389 4.757 12.389 4.757s3.603 1.466 3.919 1.427c.277-.04.475-.278 2.534-.753.593-.119 1.425.119 1.425.119s1.029.317 1.029.555c0 .237-.277.436-.475.436-.198 0-.594-.159-.832-.159-.197 0-.633.476-.712.674-.04.119 2.85 2.259 3.008 2.537.079.079 3.563-.159 3.404.039 0 .357-.435.238-.435.317-.04.952-4.987 1.665-5.344 1.586-.514-.079-5.383-2.339-5.383-2.339z"/>
        <path fill="#FFA42F" d="M213.474 190.383l6.729-4.4s-7.798-11.852-10.45-13.081c-1.821-.832-4.117.436-5.027 3.528-.99 3.409 8.748 13.953 8.748 13.953z"/>
        <path fill="#ADEFF7" d="M262.596 182.495l-1.148 1.11v-6.422c0-.674-.554-1.189-1.187-1.189h-9.975c-.673 0-1.188.555-1.188 1.189v7.452l-1.227-2.14-4.235 1.229s3.404 6.461 5.462 7.491c2.771 1.427 9.619 1.388 12.39 0 1.702-.832 4.552-5.985 4.552-5.985l-3.444-2.735z"/>
        <path fill="#7271B3" d="M258.797 192.008c-.198-2.22-1.702-3.924-3.484-3.924-1.82 0-3.325 1.744-3.483 3.964 2.138.317 4.79.317 6.967-.04z"/>
        <path fill="#FF7A03" d="M199.262 12.05c-1.029 1.744-2.85 1.665-4.789 2.14-1.306.318-2.098 2.498-1.979 4.123.316 4.123-2.93 3.449-5.542 5.153-6.254 4.083-2.217 14.785 4.592 15.499 1.385.119 2.929-.08 4.116-.753.99-.555 1.663-1.23 2.771-1.626 2.296-.832 4.869-1.11 6.69-2.853 2.612-2.537.435-3.766 1.148-5.63.673-1.823 3.602-.91 4.156-4.716.594-4.122-.04-7.69-1.583-9.751-2.534-3.41-6.928-3.607-8.55-2.577-.475.278-.792.635-1.03.991z"/>
        <path fill="#F48C7F" d="M227.881 19.82c-.237-.516-2.414.99-2.889.713-.475-.277 1.939-2.735 1.702-3.131-.436-.793-2.811 2.497-3.048 2.14-.238-.357 2.018-3.845 1.227-4.043-.792-.198-1.979 3.885-2.375 3.607-.396-.277 1.425-3.686.633-4.4-.435-.356-2.375 6.263-3.087 6.54-.713.278-1.504-2.615-2.177-2.497-.673.12 2.216 5.312 2.058 5.748-.158.396-2.771 8.919-4.315 11.495-.95-.436-1.86-.912-2.731-1.348-.356 1.982-.396 4.044-.831 5.986 3.008 1.308 5.7 2.299 6.571 1.982 2.652-.991 3.998-13.953 4.393-16.37.436-2.419 1.584-2.895 2.217-4.163.673-1.268 2.929-1.744 2.652-2.26z"/>
        <path fill="#ADEFF7" d="M205.596 30.72l-4.473 4.519s5.898 3.21 10.885 5.39c.475-1.941.515-4.003.832-5.985-4.077-2.1-7.244-3.924-7.244-3.924z"/>
        <path fill="#F7A491" d="M233.423 80.743c1.939 2.3 3.364 4.718 3.523 5.035.079.158.119.95.158 1.11 3.048 2.021 6.254 1.466 8.906.634-1.741-.754-4.156-1.626-4.393-1.982-.357-.595-2.019-2.696-3.721-6.5-1.346 1.347-2.613 1.188-4.473 1.703z"/>
        <path fill="#352E73" d="M236.985 85.897c-.277 1.228-.158 3.686.08 3.725.277.08 10.529 1.586 11.835.278.792-.793-.712-1.387-2.85-2.378-2.612.832-8.946-.793-9.065-1.626z"/>
        <path fill="#F7A491" d="M234.294 89.98c1.94 2.298 3.365 4.716 3.523 5.033.079.159.119.952.158 1.11 3.048 2.022 6.254 1.467 8.906.634-1.741-.753-4.156-1.625-4.393-1.981-.357-.595-2.019-2.696-3.721-6.501-1.346 1.348-2.613 1.19-4.473 1.704z"/>
        <path fill="#352E73" d="M237.857 95.132c-.277 1.23-.159 3.687.079 3.726.277.08 10.529 1.586 11.835.278.792-.793-.712-1.387-2.85-2.379-2.652.833-8.946-.792-9.064-1.625z"/>
        <path fill="#AA0F38" d="M239.32 80.664l-5.304 1.863-28.619-23.783s6.967-.08 19.515 1.19c3.681.356 14.408 20.73 14.408 20.73z"/>
        <path fill="#F31D4B" d="M194.631 56.762s-.752 2.022-.87 3.092c-.317 3.528 1.504 8.047 3.483 8.72 2.019.714 14.448 4.163 21.929 3.132l16.229 21.642 5.423-2.378-12.666-22.277s-2.455-3.844-4.434-4.756c-2.018-.912-18.327-5.272-18.327-5.272l-2.533-3.687-8.234 1.784z"/>
        <path fill="#D1F7FA" d="M207.813 34.288c-.911-1.665-1.821-2.973-1.821-2.973-.911-1.665-3.325-2.498-3.325-2.498s-.792 0-1.742.08c-.039.158-.119.277-.158.317-.356.277-2.336-.08-3.602.793-4.315 3.686-3.127 21.682-2.771 27.35l10.45.396s.989-12.446 3.642-15.617c1.86-2.22.672-5.351-.673-7.849z"/>
        <path fill="#F7A491" d="M201.915 22.753s-.713 5.153-1.228 6.421c-.514 1.269 2.771 3.925 5.503 4.757 2.731.832-.832-2.775-.713-4.122.119-1.348.594-7.69.594-7.69l-4.156.634z"/>
        <path fill="#F47458" d="M205.913 23.942c.079-1.07.118-1.823.118-1.823l-4.156.634s-.119.594-.237 1.466c1.741.991 3.246.674 4.275-.277z"/>
        <path fill="#F7A491" d="M203.221 13.319s-1.623.357-2.652 1.903c-1.029 1.545-1.702 6.104 1.623 8.244 3.325 2.14 5.898-.872 5.977-3.805 0-2.933-.594-6.857-4.948-6.342z"/>
        <path fill="#F7A491" d="M208.921 18.75c-.277.713-.831 1.149-1.267.99-.396-.158-.514-.872-.237-1.585.277-.714.831-1.15 1.266-.991.396.158.515.872.238 1.585zM200.489 19.304c.238.753.04 1.507-.475 1.665-.514.159-1.108-.317-1.385-1.07-.237-.753-.04-1.506.475-1.665.554-.159 1.148.317 1.385 1.07z"/>
        <path fill="#FFA42F" d="M214.304 36.269s1.108.04 1.425 0c1.821-.159 1.068 2.537 1.068 2.537s-.91-.872-1.266-.872-.871.079-.871.079l-.356-1.744z"/>
        <path fill="#FF7A03" d="M220.519 54.423s.752 1.19 1.623.635c.831-.516 2.296-1.546 2.573-.793.277.753.237 1.427-.079 1.585-.277.159-2.494 1.348-3.682 1.427-1.187.08-2.177-1.03-2.177-1.03l1.742-1.824z"/>
        <path fill="#FCC13F" d="M222.26 57.08c-.039-.913-.237-1.943-.712-2.855-1.306-2.26-6.769-8.324-7.6-8.76-.792-.476-.238-2.299-.238-2.299l-3.245-1.744-1.702-.912s-3.84 5.867-4.117 6.422c-.277.555.237 2.378-.159 3.488-.395 1.11.001 7.174-.554 7.848-.435.436-.831.476-.95.753-.079.12-.118.318.04.516.435.555 2.692.079 2.692.079 0-.04.95-1.348.791-2.1-.158-.754.317-5.273.634-5.273.277 0 1.583 2.022 2.097 2.378.04.04.119.08.159.08.356 0 2.771.515 3.285 1.07.159.159.198.515.198.991 0 .317 0 .674-.039 1.03-.04.674-.159 1.348-.198 1.824h1.702c.475-.833 1.464-1.427 2.612-1.427 1.069 0 2.019.515 2.534 1.268.95-.04 1.345.436 2.137.357 0-.357.673-2.378.633-2.735z"/>
        <path fill="#FF7A03" d="M214.62 36.547c-.356-.357-.87-.516-1.345-.436-.277.04-.673.079-1.188 0-1.187-.12-2.414 0-3.206.753-.752.753-.871 3.528 0 4.796.871 1.308 3.325 1.625 3.523 2.22.198.594 2.335.872 2.652.158 0 0 .237.159.554.08.792-.238 1.069-1.031.792-1.864-.277-.832-1.465-2.576-1.267-4.161.119-.714-.158-1.23-.515-1.546z"/>
        <path fill="#352E73" d="M214.106 41.818c-.118.159-.158.357 0 .516.238.277.673.753.99.951.475.278.91-.872.91-1.387.04-.476-1.068-.952-1.9-.08z"/>
        <path fill="#FF7A03" d="M213.631 50.063c0-.237-.237-.436-.475-.436-1.267.08-2.137 1.23-1.979 2.498v.198c-.04.238-.435.951-.831 1.744.752.198 1.504.396 2.256.555.554-.951 1.108-1.863 1.108-1.863l-.079-2.696z"/>
        <path fill="#FF7A03" d="M209.316 55.97s-.87 2.576-1.108 3.567c.713.396 1.108-.397 2.692.04.039-.318.593-2.22.593-2.696 0-.238.713-1.308 1.267-2.26.04-.079 0-.158-.079-.198-.673-.198-1.544-.555-2.256-.753-.08-.04-.198 0-.238.08-.475.99-.871 2.22-.871 2.22z"/>
        <path fill="#FF7A03" d="M207.575 59.26c.159-.357.673-.793 1.425-.793.753 0 1.9 1.11 1.9 1.11s-.356.356-1.306.356c-.989-.04-2.335.04-2.019-.673zM211.929 59.1c.159-.356.673-.792 1.425-.792.277 0 .634.159.95.357.515.317.277 1.11-.316 1.11h-.04c-.99-.04-2.375.04-2.019-.674zM218.816 59.1c.198-.356.792-.792 1.703-.792.316 0 .752.159 1.108.357.594.317.356 1.11-.356 1.11h-.04c-1.148-.04-2.81.04-2.415-.674z"/>
        <path fill="#FFA42F" d="M211.414 37.102c-.356-.357-.119-.753.04-.991-.99-.04-1.94.158-2.573.793-.752.753-.871 3.527 0 4.796.792 1.15 2.85 1.546 3.404 2.021.594-.99-.317-1.863-.515-2.299-.197-.475 1.069-1.664 1.188-2.616.158-.951-1.029-1.189-1.544-1.704z"/>
        <path fill="#FF7A03" d="M209.753 36.349s-.753.277-1.742-.08c-.95-.356-1.94 1.388-1.94 1.388s.911 1.942 1.623 2.418c.713.475 2.059-3.726 2.059-3.726z"/>
        <path fill="#F7A491" d="M222.022 52.838c0-.436-1.306-1.665-1.939-1.466-.594.198-3.088 1.744-3.088 1.744l-11.004-2.577s-2.771-6.342-3.048-11.772c-2.296.317-3.839.872-5.858 1.981.95 5.193 3.285 13.636 5.898 15.222 1.069.674 14.052-.793 14.052-.793s2.692.396 3.365.198c2.731-.793 1.622-1.665 1.622-2.537z"/>
        <path fill="#ADEFF7" d="M202.983 32.94c-.356-1.625-.752-3.29-2.493-3.805-1.109-.318-2.336 0-3.207.713-1.029.872-1.345 2.22-1.345 3.528 0 2.973.197 6.025.752 8.919 1.979-1.11 4.908-.991 7.204-1.309.198-2.616-.475-5.906-.911-8.046z"/>
        <path fill="#FF7A03" d="M113.802 23.664c-1.148 6.184-4.868 19.225-10.925 18.987-.277-8.483-.712-15.776-1.306-18.075-.119-.476-.277-.951-.475-1.387 3.761.317 6.056-5.43 6.927-9.474-.791 2.576-2.533 6.699-4.829 8.086-1.306.793-2.256.397-2.612.278-2.178-4.083-6.334-6.818-8.313-9.236-1.583-1.942-.554-9.712-.158-12.209-.555 2.854-1.148 7.056-.91 9.99.316 3.29 2.018 3.527 5.897 7.927 3.127 3.488 4.196 5.39 4.315 18.788-.238.04-.554.08-.871.12-3.206.039-6.136-3.053-7.758-5.748 1.266 2.457 3.562 5.272 6.254 6.104.475.159.989.238 1.504.278.277 0 .594 0 .871-.04.079 1.19.435 24.18.119 39.044.95 0 .752-.436 1.702-.357-.04-4.043.158-19.066-.277-32.305 7.045-.357 10.014-13.438 10.845-20.77z"/>
        <path fill="#2BA14C" d="M87.915 3.33c1.424 1.149 3.601.872 3.601.872L86.252.04s.198 2.14 1.663 3.29z"/>
        <path fill="#8CD334" d="M86.252.04l5.225 4.201s-.198-2.18-1.623-3.33C88.429-.237 86.252.04 86.252.04z"/>
        <path fill="#2BA14C" d="M112.14 41.7c1.86-.08 3.285-1.705 3.285-1.705l-6.69.238s1.544 1.506 3.405 1.467z"/>
        <path fill="#8CD334" d="M108.735 40.233l6.69-.238s-1.544-1.506-3.404-1.427c-1.861.04-3.286 1.665-3.286 1.665z"/>
        <path fill="#2BA14C" d="M114.079 34.961c1.267-.832 1.583-2.537 1.583-2.537l-4.552 2.973c0-.04 1.702.357 2.969-.436z"/>
        <path fill="#8CD334" d="M111.11 35.358l4.552-2.973s-1.702-.397-2.968.396c-1.267.833-1.584 2.577-1.584 2.577z"/>
        <path fill="#2BA14C" d="M107.548 34.684c.515 1.427 2.138 2.1 2.138 2.1l-1.9-5.073s-.752 1.586-.238 2.973z"/>
        <path fill="#8CD334" d="M107.786 31.71l1.9 5.114s.792-1.585.238-3.012c-.515-1.388-2.138-2.101-2.138-2.101z"/>
        <path fill="#2BA14C" d="M92.744 7.214c-1.148.793-1.386 2.378-1.386 2.378l4.078-2.854c0 .04-1.584-.277-2.692.476z"/>
        <path fill="#8CD334" d="M95.436 6.778l-4.078 2.854s1.584.317 2.692-.476c1.148-.793 1.386-2.378 1.386-2.378z"/>
        <path fill="#2BA14C" d="M108.34 18.63c-1.386-.12-2.573.951-2.573.951l4.948.396c0 .04-.99-1.228-2.375-1.347z"/>
        <path fill="#8CD334" d="M110.715 20.017l-4.948-.396s1.029 1.268 2.375 1.347c1.385.12 2.573-.951 2.573-.951z"/>
        <path fill="#2BA14C" d="M93.694 34.287c-1.385-.119-2.573.951-2.573.951l4.948.397s-1.03-1.229-2.375-1.348z"/>
        <path fill="#8CD334" d="M96.069 35.635l-4.948-.397s1.03 1.269 2.375 1.348c1.386.159 2.573-.951 2.573-.951z"/>
        <path fill="#2BA14C" d="M96.267 32.9c-.514-1.269-1.979-1.903-1.979-1.903l1.82 4.638c-.039 0 .634-1.427.16-2.735z"/>
        <path fill="#8CD334" d="M96.07 35.635l-1.821-4.638s-.673 1.467-.198 2.735c.514 1.308 2.018 1.903 2.018 1.903z"/>
        <path fill="#2BA14C" d="M106.044 16.886c-.317-.832-1.267-1.229-1.267-1.229l1.109 2.973c.039 0 .475-.912.158-1.744z"/>
        <path fill="#8CD334" d="M105.925 18.63l-1.108-2.973s-.435.912-.158 1.744c.316.833 1.266 1.23 1.266 1.23z"/>
        <path fill="#2BA14C" d="M89.578 10.227c-1.267-.476-2.731.198-2.731.198l4.67 1.784c-.04 0-.672-1.467-1.94-1.982z"/>
        <path fill="#8CD334" d="M91.478 12.209l-4.671-1.784s.633 1.506 1.9 1.982c1.306.515 2.77-.198 2.77-.198z"/>
        <path fill="#FCC13F" d="M105.965 76.74h.712v-28.5c0-.198-.158-.357-.356-.357-.198 0-.356.159-.356.357v28.5z"/>
        <path fill="#AA0F38" d="M97.494 77.73s3.325-4.003 6.017-2.893c2.691 1.15 3.127-.912 4.552-.238 1.425.674 3.167 2.418 3.167 2.418l-13.736.714z"/>
        <path fill="#ADEFF7" d="M103.945 56.286c-.752 0-1.662-.158-2.612-.673-.079-.04-.119-.159-.079-.238.039-.08.158-.12.237-.08 2.89 1.546 4.988-.079 5.067-.158.079-.08.198-.04.237.04.08.079.04.198-.039.237 0 0-1.108.872-2.811.872z"/>
        <path fill="#ADEFF7" d="M101.532 55.613l-.317-.199c-.238-.158-2.296-1.387-2.375-2.338 0-.238.079-.436.277-.595.356-.277.673-.357.99-.238.989.397 1.345 2.735 1.385 2.973l.04.397zm-1.703-3.052c-.158 0-.316.079-.475.198-.118.079-.158.158-.118.277.04.555 1.187 1.427 1.86 1.863-.158-.793-.514-2.1-1.108-2.338-.08.04-.119 0-.159 0z"/>
        <path fill="#ADEFF7" d="M99.314 57.753c-.118 0-.316-.04-.435-.277-.119-.198-.119-.396-.04-.555.277-.753 1.94-1.348 2.138-1.387l.435-.159-.237.396c-.198.318-1.148 1.982-1.86 1.982zm1.307-1.744c-.555.238-1.307.634-1.425 1.03-.04.08-.04.199.04.278.039.08.118.08.118.08.277 0 .831-.714 1.267-1.388z"/>
        <path fill="#ADEFF7" d="M101.69 55.375c0 .158-.119.317-.317.317-.158 0-.316-.12-.316-.317 0-.159.118-.317.316-.317s.317.158.317.317z"/>
        <path fill="#FF7A03" d="M36.892 270.73h2.85V119.946c0-.793-.634-1.427-1.425-1.427-.792 0-1.425.634-1.425 1.427V270.73zM56.05 270.73h2.85V117.409c0-.793-.633-1.427-1.425-1.427s-1.425.634-1.425 1.427V270.73z"/>
        <path fill="#FF7A03" d="M58.425 134.89H38.91v1.704h19.515v-1.704zM58.425 157.682H38.91v1.704h19.515v-1.704zM58.425 180.474H38.91v1.704h19.515v-1.704zM58.425 203.266H38.91v1.704h19.515v-1.704z"/>
        <path fill="#13375B" d="M44.333 217.773h-12.31c-1.03 0-1.82.833-1.82 1.824v6.937h2.058v-6.58h12.072v-2.181z"/>
        <path fill="#F7A491" d="M46.708 213.096l-3.8-4.044s-4.077 2.26-8.827 4.4c-1.306-2.299-3.444-9.79-3.563-10.147-.118-.357 2.494-4.876 1.9-4.995-.593-.118-1.345 2.418-1.979 2.141-.633-.238-2.216-6.104-2.573-5.787-.712.594.832 3.646.475 3.845-.356.238-1.306-3.37-2.018-3.211-.713.159 1.187 3.25.99 3.567-.199.318-2.217-2.616-2.613-1.942-.238.357 1.82 2.537 1.425 2.775-.436.238-2.296-1.11-2.494-.674-.238.436 1.742.912 2.296 2.022.554 1.109 1.544 1.545 1.86 3.686.317 2.14 1.227 13.477 3.523 14.389 1.98.872 15.398-6.025 15.398-6.025zM81.898 265.497c.316-2.14.277-6.104.118-10.266 1.86-.079 3.444-.198 5.305-.317-.792 5.351-1.307 10.821-1.307 10.821l.12 1.071.078 3.131-10.568.079s2.216-.991 5.343-2.933c.238-.238.792-.674.91-1.586z"/>
        <path fill="#F31D4B" d="M86.529 270.531l-11.162.119c-.396-.039-.515-.356-.357-.555.277-.396 1.544-.713 3.009-1.387 2.493.278 7.758-1.467 8.154-2.021.237 1.149.554 3.805.356 3.844z"/>
        <path fill="#F7A491" d="M100.819 263.278c-.871-1.982-2.969-5.351-5.304-8.8 1.543-1.07 3.048-2.14 4.591-3.25 2.138 4.955 4.354 10.029 4.354 10.029l.673.832 1.702 2.616-8.945 5.629s1.385-2.022 3.008-5.312c.119-.238.317-.911-.079-1.744z"/>
        <path fill="#F31D4B" d="M107.311 265.379l-9.302 5.748c-.357.198-.634-.04-.594-.278.04-.515.95-1.427 1.82-2.735 2.257-1.11 5.819-5.351 5.859-6.065.792.833 2.375 3.171 2.217 3.33z"/>
        <path fill="#2D2861" d="M96.505 176.113c.83-4.043-1.782-8.046-5.384-9.553.04-2.299-.712-5.192-2.295-6.778-3.088-3.092-8.986-4.201-11.242-.238-3.008 1.705-5.344 5.391-4.473 8.721-2.89 3.012-1.82 8.482 2.454 11.059-.08 3.369 1.702 6.739 4.67 8.205.713.357 1.822.833 1.98.991-.198-.158 2.177 6.461 9.58 3.409 7.44-3.092 9.618-11.812 4.71-15.816zM81.7 262.445c.91-5.073-2.256-17.678-4.196-23.228-2.019-5.747-3.285-30.164-3.285-30.164l2.296-2.696 9.341-.555s-3.958 12.209-3.958 16.411c0 4.201 1.94 15.022 4.196 20.651 2.098 5.193 1.227 16.093.594 19.7-1.742.318-3.326.238-4.988-.119z"/>
        <path fill="#352E73" d="M88.192 206.952c.435.436 2.929 3.409 2.929 5.47s-4.71 20.77-3.602 21.92c1.148 1.149 5.343 3.964 7.996 7.927 2.256 3.33 7.441 12.962 8.431 15.261-1.94 1.348-3.642 1.982-5.581 2.616-.317-1.704-15.596-18.59-17.338-22.118-1.742-3.528-2.692-19.66-3.562-21.801-.871-2.14-3.246-7.571-3.246-7.571l13.973-1.704z"/>
        <path fill="#F79C8D" d="M74.575 193.158s-5.78 6.58-12.152 9.077c-.99.396-1.86 1.149-1.86 1.149 0 .674 1.187.199 1.187.199s-.396.634-.198 1.466c.198.793 1.583.278 2.375.278.356 0 2.138-1.982 4.513-3.171 2.85-1.388 6.175-2.735 6.61-3.132.792-.793-.237-6.104-.475-5.866z"/>
        <path fill="#F31D4B" d="M86.292 174.647s-5.78-.595-8.828 1.347c-3.008 1.943-4.947 8.84-4.947 11.773s2.177 18.392 1.345 21.326c0 0 9.58-.436 12.865-.436s3.958-1.269 3.958-1.269-6.808-6.738-6.808-9.672c-.04-2.893 2.415-23.069 2.415-23.069z"/>
        <path fill="#2D2861" d="M7.125 253.844v10.068h1.069v-9.156h7.204v3.131c-2.77.317-4.948 2.894-4.948 6.025 0 3.33 2.454 6.025 5.502 6.025 3.048 0 5.502-2.695 5.502-6.025 0-3.131-2.177-5.708-4.948-6.025v-3.131h1.504v-1.189h-1.504v-3.607h1.504v-1.189h-1.504v-4.044H36.22v-1.783H25.333v-10.267c0-2.735 2.534-5.787 5.898-5.787h9.381v-1.784h-9.42c-3.998 0-7.521 3.528-7.521 7.611v10.266h-7.165v-5.747h-1.069v11.574h-3.641c-2.613-.079-4.671 2.22-4.671 5.034zm8.273-.277H8.194c.118-2.022 1.662-3.607 3.562-3.607h3.642v3.607z"/>
        <path fill="#F48C7F" d="M11.4 255.43l.238 3.884c.079.476.395 1.705.395 2.141 0 1.665-7.48-1.427-5.818-2.18.158-.08 1.029-.991 1.227-1.546.396-.951.554-2.814.554-2.814l3.404.515z"/>
        <path fill="#AA0F38" d="M6.215 259.275s1.741.515 2.652.634c.91.119 2.098-.951 2.731-.674.712.317.752 3.29.752 3.29s-9.42.317-12.152-.079c-1.069-.159 2.415-1.982 6.017-3.171z"/>
        <path fill="#2D2861" d="M48.846 247.106h2.058v-39.401c0-1.348 1.306-2.418 2.89-2.418h18.604c.514 0 .91-.396.91-.872s-.396-.872-.91-.872H53.794c-2.732 0-4.948 1.863-4.948 4.122v39.441z"/>
        <path fill="#2D2861" d="M39.148 264.071c6.887 0 12.47-5.644 12.47-12.605 0-6.962-5.583-12.605-12.47-12.605-6.886 0-12.468 5.643-12.468 12.605 0 6.961 5.582 12.605 12.468 12.605z"/>
        <path fill="#2D2861" d="M23.948 251.466c0 8.483 6.809 15.34 15.2 15.34 8.392 0 15.2-6.857 15.2-15.34s-6.808-15.34-15.2-15.34c-8.391 0-15.2 6.857-15.2 15.34zm1.465 0c0-7.69 6.135-13.873 13.735-13.873s13.736 6.223 13.736 13.873c0 7.65-6.136 13.873-13.736 13.873-7.6 0-13.735-6.223-13.735-13.873z"/>
        <path fill="#352E73" d="M49.114 233.99h6.096v-23.664h-6.096v23.664z"/>
        <path fill="#7271B3" d="M29.094 248.731h-5.146c-2.77 0-5.027 2.299-5.027 5.113v10.068h1.187v-10.068c0-2.14 1.742-3.884 3.88-3.884h5.145v-1.229h-.04z"/>
        <path fill="#2D2861" d="M10.932 238.253h16.03v-2.775h-16.03v2.775z"/>
        <path fill="#7271B3" d="M29.015 253.567h-9.54v1.189h9.54v-1.189zM50.508 242.904H28.5v1.784h22.008v-1.784z"/>
        <path fill="#2D2861" d="M26.571 238.251H55.23v-2.814H26.57v2.814z"/>
        <path fill="#7271B3" d="M54.348 249.246h1.781v-39.44c0-1.348 1.109-2.418 2.494-2.418h16.704v-1.704H58.584c-2.336 0-4.275 1.863-4.275 4.122v39.44h.04z"/>
        <path fill="#352E73" d="M21.85 263.912c0 3.33 2.968 6.025 6.65 6.025 3.68 0 6.65-2.695 6.65-6.025 0-3.329-2.97-6.025-6.65-6.025-3.682-.039-6.65 2.696-6.65 6.025z"/>
        <path fill="#7271B3" d="M24.463 263.912c0 2.022 1.82 3.687 4.037 3.687 2.217 0 4.038-1.665 4.038-3.687 0-2.021-1.82-3.686-4.038-3.686-2.256 0-4.037 1.665-4.037 3.686z"/>
        <path fill="#FFA42F" d="M12.27 225.067c1.94-1.943 28.738-.991 28.738-.991s-22.68 5.549-24.027 6.263c-1.306.713-6.254 25.13-6.254 25.447-1.385-.317-2.217-.079-3.602-.356.198-4.242 2.058-27.272 5.146-30.363z"/>
        <path fill="#F7A491" d="M14.883 255.549l.238 3.884c.08.476.396 1.705.396 2.141 0 1.665-7.481-1.427-5.819-2.18.158-.079 1.188-.952 1.227-1.546.08-.872.04-2.299.04-2.299h3.918z"/>
        <path fill="#F31D4B" d="M9.738 259.393s1.742.516 2.652.635c.91.119 2.098-.952 2.731-.674.713.317.752 3.29.752 3.29s-9.42.317-12.152-.08c-1.108-.158 2.415-1.981 6.017-3.171z"/>
        <path fill="#FCC13F" d="M45.164 229.585s-.237 6.105-2.256 6.184c-2.019.079-15.002.357-22.325-.278l-4.908 21.802-5.78-.595s1.742-14.547 2.376-20.097c.593-5.43 2.374-10.028 5.422-10.107 3.088-.119 23.275-3.251 23.275-3.251l4.196 6.342z"/>
        <path fill="#8CD334" d="M50.627 201.165s3.285.832 2.85 7.253c-.435 6.422-3.998 25.845-10.53 27.351-6.57 1.506-10.805-12.288-10.805-12.288s4.116-1.348 5.858-7.769c1.187-4.44 4.394-14.508 5.185-14.983 1.94-1.229 7.442.436 7.442.436z"/>
        <path fill="#7271B3" d="M36.892 244.291h1.78v-11.614c0-2.735 2.732-5.787 6.374-5.787h10.173v-1.784H45.046c-4.354 0-8.154 3.528-8.154 7.611v11.574zM40.89 253.131c0 8.007 6.412 14.468 14.329 14.468 7.916 0 14.329-6.461 14.329-14.468s-6.413-14.468-14.33-14.468c-7.916 0-14.328 6.461-14.328 14.468z"/>
        <path fill="#7271B3" d="M37.763 253.131c0 9.751 7.798 17.639 17.456 17.639s17.456-7.888 17.456-17.639-7.798-17.639-17.456-17.639-17.456 7.888-17.456 17.639zm1.662 0c0-8.8 7.086-15.935 15.794-15.935s15.794 7.135 15.794 15.935c0 8.799-7.086 15.934-15.794 15.934s-15.794-7.135-15.794-15.934z"/>
        <path fill="#352E73" d="M43.423 253.131c0 6.58 5.304 11.931 11.796 11.931 6.491 0 11.795-5.351 11.795-11.931 0-6.58-5.304-11.931-11.795-11.931-6.492 0-11.796 5.311-11.796 11.931z"/>
        <path fill="#7271B3" d="M55.218 255.826c1.465 0 2.653-1.206 2.653-2.695 0-1.489-1.188-2.695-2.653-2.695-1.464 0-2.652 1.206-2.652 2.695 0 1.489 1.188 2.695 2.652 2.695z"/>
        <path fill="#2D2861" d="M2.52 265.75h18.05v-3.131H2.52v3.131z"/>
        <path fill="#7271B3" d="M10.315 265.75h10.252v-3.131H10.315v3.131zM29.094 238.227h-1.188v27.509h1.188v-27.509z"/>
        <path fill="#2D2861" d="M27.787 264.269c0 .397.317.753.713.753.395 0 .712-.317.712-.753s-.317-.753-.712-.753c-.396 0-.713.317-.713.753zM48.648 183.962s2.295-1.546 3.285 1.149c0-.039.831 0 .91.04.475.158.91.634 1.346.912 1.505.951 2.177 2.814 2.257 4.558.118 2.101-.752 3.607-2.138 5.113-.396.436-.831.872-1.346 1.15-.633.357-1.148.079-1.741.198-.515.119-.673.674-1.267.476-.831-.278-1.702-1.308-2.731-1.15-1.03.159-3.404-.793-3.404-.793-3.048-1.189-.99-7.134-.396-9.235.514-1.943 3.325-3.132 5.225-2.418z"/>
        <path fill="#F7A491" d="M45.877 197.439l-.791 2.18-.436 1.229s-.04 2.18.475 2.735c.87.951 4.433-2.616 4.433-2.616l1.148-6.818-4.829 3.29z"/>
        <path fill="#F47458" d="M50.35 196.329c-1.346 2.101-3.721 3.092-5.265 3.33l.792-2.18 4.829-3.33-.357 2.18z"/>
        <path fill="#F7A491" d="M49.795 187.093c-1.82-1.11-4.235-.277-4.948 1.705-.316.872-.672 1.942-.99 3.171-.712 2.933.199 6.104 1.505 6.381 1.346.278 5.423-.792 6.452-4.915.633-2.537-.119-5.153-2.019-6.342z"/>
        <path fill="#F7A491" d="M50.785 193.554c-.158.635.158 1.269.712 1.388.515.119 1.07-.317 1.227-.952.159-.634-.158-1.268-.712-1.387-.554-.119-1.108.277-1.227.951z"/>
        <path fill="#2D2861" d="M46.668 194.743s1.742.555 1.9 1.229c.159.634-.079 1.586-.91 2.299-.87.714-2.692.278-3.206-.119-.515-.396-.871-2.061-.396-2.973.515-.951 2.612-.436 2.612-.436z"/>
        <path fill="#F7A491" d="M47.223 196.091s0 .713-.238.832c-.237.119-.514.238-.791.238-.436.04-.832-.158-1.07-.475-.039-.04-.039-.08-.078-.119-.198-.357-.198-.991-.198-.991s.752-.199 1.148-.119c.435.119 1.227.634 1.227.634z"/>
        <path fill="#F79C8D" d="M66.144 204.455c.712-.674 3.919-1.784 6.333-3.528 1.069-.793 3.167-1.823 5.146-2.933 1.465.832 2.81 1.823 3.8 3.052-3.642 1.665-7.6 3.369-8.194 3.964-1.148 1.149-3.127 3.686-3.562 3.686-.475 0-3.959-1.031-4.513-1.546-.475-.476.317-1.982.99-2.695z"/>
        <path fill="#AA0F38" d="M77.662 197.994c2.533-1.427 4.988-2.973 5.265-4.361.475-2.497-1.623-13.199-.475-15.26 1.187-2.062 3.84-3.766 3.84-3.766.435 0 1.939.912 2.335 2.775.435 1.863-.317 18.471-.752 19.977-.198.714-3.088 3.528-6.294 5.034-.99-1.189-2.454-3.567-3.919-4.399z"/>
        <path fill="#F7A491" d="M51.458 220.429l-10.133 2.656s-2.969 2.14-4.315 2.576c-1.345.436-2.968 1.903-2.652 2.378.317.436 2.02-1.07 2.296-1.03.277.039-.99 1.863-1.187 3.052-.198 1.189-.634 2.339.079 2.259.673-.079 1.187-2.774 1.187-2.774s1.07-2.022 1.228-1.784c.158.238-.713 1.625-.713 1.625s-.198 1.506-.317 2.061c-.079.397.277 1.586.594 1.15.198-.238.08-1.229.317-1.784.435-1.149 1.148-2.061 1.148-2.061s-.752 3.448-.277 3.528c.475.079.99-2.775.99-2.775s1.187-2.378 1.662-2.576c.514-.199 1.9-1.11 3.008-1.507 1.069-.396 5.581.872 7.56.912 2.02.04 5.265-1.229 5.502-2.775.08-.475-.197-1.03-.672-1.506-1.307-1.546-3.365-2.101-5.305-1.625z"/>
        <path fill="#2BA14C" d="M50.627 201.165s3.048-.555 5.858 4.439c2.771 4.995.99 17.877.99 17.877l-5.977-3.052-.871-19.264z"/>
        <path fill="#F48C7F" d="M64.284 205.446c-.357 0-2.257.119-2.534-.159-.277-.277.99-1.07 1.109-.912.118.119.673-.158.831.04.198.198.713-.04.87.119.16.119.08.912-.276.912z"/>
        <path fill="#F7A491" d="M83.283 169.454s-.633 3.567-.514 4.955c.119 1.387-.475 5.906-3.286 5.945-2.77 0-.91-4.677-.633-6.064.277-1.388.673-6.699.673-6.699l3.76 1.863z"/>
        <path fill="#F47458" d="M79.364 169.613c.04-1.15.238-2.101.238-2.101l3.641 1.942-.277 1.665c-1.583.357-2.89-.436-3.602-1.506z"/>
        <path fill="#F7A491" d="M83.363 159.148s1.583.555 2.415 2.259c.87 1.705 1.148 6.501-2.296 8.324-3.444 1.824-5.74-1.546-5.502-4.598.198-3.012 1.148-7.016 5.383-5.985z"/>
        <path fill="#F7A491" d="M76.95 164.301c-.08.793.198 1.467.633 1.507.436.039.871-.555.95-1.348.08-.793-.198-1.467-.633-1.506-.435-.04-.87.554-.95 1.347zM85.46 165.649c-.316.753-.157 1.545.357 1.783.475.238 1.148-.198 1.425-.991.317-.753.158-1.546-.356-1.783-.475-.238-1.108.198-1.425.991z"/>
        <path fill="#F79C8D" d="M137.512 153.955s-7.402-13.239-9.183-16.053c-1.781-2.815-6.492-13.993-6.65-14.429-.158-.436 3.246-5.707 2.454-5.906-.752-.198-1.583 2.775-2.414 2.418-.792-.356-3.167-7.491-3.642-7.135-.871.674 1.267 4.44.831 4.678-.475.238-1.86-4.162-2.771-4.004-.91.119 1.702 4.004 1.465 4.36-.238.357-2.969-3.329-3.484-2.536-.277.436 2.494 3.21 1.98 3.448-.515.278-3.009-1.546-3.246-1.03-.277.515 2.296 1.228 3.048 2.616.752 1.387 2.058 1.982 2.573 4.558.554 2.577 1.346 11.892 4.077 16.569 2.731 4.638 8.787 14.944 8.787 14.944l6.175-2.498z"/>
        <path fill="#F48C7F" d="M170.327 217.773s-.594-.753-.792-1.03c-.198-.318-.792-1.309-.792-1.309s-1.82-3.527-1.543-3.607c.277-.119.91.317 1.108.476.198.159.435.357.594.555.198.159.475.198.712-.04.238-.198-.356-1.07-.633-1.347-.831-.793-3.483-2.537-3.721-2.735-.317-.238-2.335-6.897-3.206-9.117-1.306-3.687-2.494-7.571-2.613-7.968l-.831-16.767-6.214-2.061s.672 18.63.791 19.542c.079.436 3.761 8.76 3.761 8.76 2.098 4.004 3.918 7.492 4.275 8.166 0 0 .435 2.299.673 3.805.197 1.506.989 2.774 1.108 3.171 0 .079.356 1.506 1.385 2.973.871 1.268.634-.357.634-.357s-1.227-2.695-.99-2.735c.158-.04.752 1.467 1.742 2.894.237.356.514.713.712 1.07.594.872 1.306.753.831-.278-.158-.356-.475-.951-.752-1.308-.277-.436-.435-.911-.633-1.268-.396-.753-.673-1.348-.633-1.348.039 0 .079-.198.356.159.317.475.831 1.585 1.385 2.219.317.357.911 1.15.911 1.15s1.108 1.189 1.187 1.11c.436-.238-.118-1.308-.593-1.744-.159-.436-.832-1.269-.832-1.269s-.95-1.942-.673-2.101c.238-.118 3.405 4.123 3.8 3.806.357-.159-.514-1.467-.514-1.467z"/>
        <path fill="#2D2861" d="M159.125 152.41c.158-3.647-.396-7.254-2.019-10.663-1.425-2.933-4.869-4.598-8.075-4.598-10.094 0-11.36 13.318-17.773 18.471-1.979 1.586-4.156 2.854-6.016 4.559-6.848 6.263-3.761 17.837 2.533 23.307 4.354 3.805 11.202 5.986 16.585 3.013 2.811-1.546 4.948-4.123 6.452-6.977 2.138-4.003 3.563-8.641 5.067-12.922 1.663-4.558 3.048-9.315 3.246-14.19z"/>
        <path fill="#F7A491" d="M127.616 270.175s-.712 4.915-1.939 6.501c-.396.515-1.148 1.189-1.663 2.18-.752 1.506-.356 3.726.238 4.955.277.634-.04.634.633.832 1.939.595 4.037-.396 4.869-2.299.475-1.03.87-2.418.95-4.201.198-4.48 1.583-6.739 1.583-6.739l-4.671-1.229zM148.991 272.435s.436 5.549.079 7.333c-.197.951-1.266 2.973-.752 3.845.475.911 1.03 1.149 1.03 1.149l12.627.198c.673 0 .237-.436-.317-.832-.91-.674-1.623-1.11-4.552-2.497-.198-.08-.871-.516-1.108-.674-.634-.397-1.267-.991-1.821-1.586-.911-.991-.99-5.906-.99-5.906l-4.196-1.03z"/>
        <path fill="#AA0F38" d="M158.848 198.707s1.583 8.998.554 14.904c-1.029 5.906-6.056 60.647-6.056 60.647l-5.542.317s-1.148-22.871-.95-26.042c.198-3.171 1.86-8.483 1.86-8.483l-.554-18.471 7.006-24.259 3.682 1.387z"/>
        <path fill="#F31D4B" d="M142.5 196.804s-4.394 6.58-5.423 12.05c-1.029 5.471.752 22.198-1.227 29.333-1.069 3.884-5.186 9.83-5.819 14.825-.633 4.994-3.088 18.075-3.088 18.075l5.542 1.11 12.904-32.702 10.134-29.531 2.612-15.221-15.635 2.061z"/>
        <path fill="#ADEFF7" d="M146.063 159.307s-5.78-.357-8.075 2.14c-2.296 2.497 5.106 22.277 5.502 25.448.435 3.171-2.138 11.654-2.138 11.654s13.617 2.735 17.496.158c0 0 .435-22.871 0-25.13-.435-2.26-3.879-11.496-4.71-12.407-.832-.952-8.075-1.863-8.075-1.863z"/>
        <path fill="#F7A491" d="M147.962 151.577s-.04.158-.079.476c-.277 1.387-1.267 6.025-1.94 7.293-.831 1.546 2.771 6.421 6.254 5.827 1.03-.159-.87-4.519-.791-4.955.158-.872.396-2.061.673-3.29.118-.674.277-1.387.395-2.061.357-1.863.673-3.409.673-3.409l-5.185.119z"/>
        <path fill="#F47458" d="M147.883 152.053c.04-.278.079-.476.079-.476l5.186-.119s-.317 1.546-.673 3.409c-.119.674-.277 1.348-.396 2.021-.792-.118-1.623-.515-2.494-1.228-.91-.793-1.504-1.744-1.86-2.775.079-.357.118-.634.158-.832z"/>
        <path fill="#F7A491" d="M151.486 139.804s-2.455-.277-3.959 1.705c-1.544 1.982-3.167 8.086.633 11.416 3.8 3.329 7.561-.436 8.115-4.44.515-4.003.752-8.839-4.789-8.681z"/>
        <path fill="#F7A491" d="M157.343 148.446c-.435.872-1.227 1.387-1.702 1.11-.475-.278-.514-1.229-.039-2.101.435-.872 1.227-1.388 1.702-1.11.475.277.514 1.189.039 2.101z"/>
        <path fill="#2D2861" d="M151.723 139.131s-3.246 5.826-5.582 6.104c-2.335.277-2.652 3.369-2.652 3.369s.832-7.135 3.167-8.522c2.296-1.348 5.067-.951 5.067-.951zM130.149 281.393c-3.047.555-5.027-1.229-6.095-2.537-.752 1.506-1.148 3.726-.594 4.994.514 1.071 1.939 1.071 3.087 1.11 1.227.04 2.138-.634 2.771-1.704.317-.516.594-1.11.831-1.863zM155.998 280.957c-3.325.872-5.819.277-7.165-.278-.356.991-.831 2.26-.593 3.013.316.911.752 1.11 1.108 1.11 3.048.079 11.163.198 13.498.237.317 0 .515-.356.277-.634-.554-.713-6.887-3.29-7.125-3.448z"/>
        <path fill="#F7A491" d="M146.735 146.701c.198 1.031-.198 1.982-.871 2.101s-1.345-.594-1.543-1.625c-.198-1.03.197-1.982.87-2.101.673-.158 1.386.595 1.544 1.625z"/>
        <path fill="#ADEFF7" d="M135.454 149.635s8.194 8.799 9.421 12.327c1.227 3.528-1.188 8.602-4.513 8.84-3.325.238-10.687-15.618-10.687-15.618l5.779-5.549z"/>
    </g>
    <defs>
        <clipPath id="clip0">
            <path fill="#fff" d="M0 0H266V285H0z"/>
        </clipPath>
    </defs>
</svg>
